<svg xmlns="http://www.w3.org/2000/svg" width="17.906" height="17.881" viewBox="0 0 17.906 17.881"><g transform="translate(81.733 -8693.771) rotate(-15)"><g transform="translate(-2315.414 8380.041) rotate(90)"><path d="M9.334,14.272a1.221,1.221,0,0,1-1.723,0L.9,7.976A2.784,2.784,0,0,1,.043,6.444C-.042,5.055.018,2.395.06.985A1,1,0,0,1,1.022.028C2.824-.014,6.641-.059,7,.3l7.391,6.687c.474.475.045,1.676-.433,2.154ZM3.452,2.07a1.03,1.03,0,1,0,0,1.455A1.032,1.032,0,0,0,3.452,2.07Z" transform="translate(0 0)" fill="#ff8410"/></g><path d="M2.937,8.941V7.824A2.1,2.1,0,0,0,4.887,5.8c0-.986-.526-1.589-1.83-2.049-.931-.351-1.315-.581-1.315-.942,0-.307.23-.614.942-.614a3.634,3.634,0,0,1,1.578.373L4.58,1.326A3.945,3.945,0,0,0,2.991.964V0H1.918V1.041A2.025,2.025,0,0,0,.066,2.991C.066,4.054.866,4.6,2.038,5c.811.274,1.161.537,1.161.953,0,.438-.427.679-1.052.679A3.869,3.869,0,0,1,.329,6.147L0,7.429A4.408,4.408,0,0,0,1.863,7.9V8.941Z" transform="translate(-2321.636 8382.52) rotate(42)" fill="#fff"/></g></svg>