<svg xmlns="http://www.w3.org/2000/svg" width="117" height="117" viewBox="0 0 117 117">
  <g id="Group_3155" data-name="Group 3155" transform="translate(-13.201 -1352.201)">
    <path id="Combined_Shape" data-name="Combined Shape" d="M111.682,114.341A2.659,2.659,0,1,1,114.341,117,2.659,2.659,0,0,1,111.682,114.341Zm-15.955,0A2.659,2.659,0,1,1,98.386,117,2.659,2.659,0,0,1,95.727,114.341Zm-15.955,0A2.659,2.659,0,1,1,82.432,117,2.659,2.659,0,0,1,79.772,114.341Zm-15.954,0A2.659,2.659,0,1,1,66.477,117,2.659,2.659,0,0,1,63.818,114.341Zm-15.955,0A2.659,2.659,0,1,1,50.522,117,2.659,2.659,0,0,1,47.864,114.341Zm-15.955,0A2.659,2.659,0,1,1,34.568,117,2.659,2.659,0,0,1,31.909,114.341Zm-15.954,0A2.659,2.659,0,1,1,18.614,117,2.659,2.659,0,0,1,15.955,114.341ZM0,114.341A2.659,2.659,0,1,1,2.659,117,2.659,2.659,0,0,1,0,114.341ZM111.682,98.386a2.659,2.659,0,1,1,2.659,2.659A2.659,2.659,0,0,1,111.682,98.386Zm-15.955,0a2.659,2.659,0,1,1,2.659,2.659A2.659,2.659,0,0,1,95.727,98.386Zm-15.955,0a2.659,2.659,0,1,1,2.659,2.659A2.659,2.659,0,0,1,79.772,98.386Zm-15.954,0a2.659,2.659,0,1,1,2.659,2.659A2.659,2.659,0,0,1,63.818,98.386Zm-15.955,0a2.659,2.659,0,1,1,2.659,2.659A2.659,2.659,0,0,1,47.864,98.386Zm-15.955,0a2.659,2.659,0,1,1,2.659,2.659A2.659,2.659,0,0,1,31.909,98.386Zm-15.954,0a2.659,2.659,0,1,1,2.659,2.659A2.659,2.659,0,0,1,15.955,98.386ZM0,98.386a2.659,2.659,0,1,1,2.659,2.659A2.659,2.659,0,0,1,0,98.386ZM111.682,82.432a2.659,2.659,0,1,1,2.659,2.659A2.659,2.659,0,0,1,111.682,82.432Zm-15.955,0a2.659,2.659,0,1,1,2.659,2.659A2.659,2.659,0,0,1,95.727,82.432Zm-15.955,0a2.659,2.659,0,1,1,2.659,2.659A2.659,2.659,0,0,1,79.772,82.432Zm-15.954,0a2.659,2.659,0,1,1,2.659,2.659A2.659,2.659,0,0,1,63.818,82.432Zm-15.955,0a2.659,2.659,0,1,1,2.659,2.659A2.659,2.659,0,0,1,47.864,82.432Zm-15.955,0a2.659,2.659,0,1,1,2.659,2.659A2.659,2.659,0,0,1,31.909,82.432Zm-15.954,0a2.659,2.659,0,1,1,2.659,2.659A2.659,2.659,0,0,1,15.955,82.432ZM0,82.432a2.659,2.659,0,1,1,2.659,2.659A2.659,2.659,0,0,1,0,82.432ZM111.682,66.477a2.659,2.659,0,1,1,2.659,2.659A2.659,2.659,0,0,1,111.682,66.477Zm-15.955,0a2.659,2.659,0,1,1,2.659,2.659A2.659,2.659,0,0,1,95.727,66.477Zm-15.955,0a2.659,2.659,0,1,1,2.659,2.659A2.659,2.659,0,0,1,79.772,66.477Zm-15.954,0a2.659,2.659,0,1,1,2.659,2.659A2.659,2.659,0,0,1,63.818,66.477Zm-15.955,0a2.659,2.659,0,1,1,2.659,2.659A2.659,2.659,0,0,1,47.864,66.477Zm-15.955,0a2.659,2.659,0,1,1,2.659,2.659A2.659,2.659,0,0,1,31.909,66.477Zm-15.954,0a2.659,2.659,0,1,1,2.659,2.659A2.659,2.659,0,0,1,15.955,66.477ZM0,66.477a2.659,2.659,0,1,1,2.659,2.659A2.659,2.659,0,0,1,0,66.477ZM111.682,50.522a2.659,2.659,0,1,1,2.659,2.659A2.659,2.659,0,0,1,111.682,50.522Zm-15.955,0a2.659,2.659,0,1,1,2.659,2.659A2.659,2.659,0,0,1,95.727,50.522Zm-15.955,0a2.659,2.659,0,1,1,2.659,2.659A2.659,2.659,0,0,1,79.772,50.522Zm-15.954,0a2.659,2.659,0,1,1,2.659,2.659A2.659,2.659,0,0,1,63.818,50.522Zm-15.955,0a2.659,2.659,0,1,1,2.659,2.659A2.659,2.659,0,0,1,47.864,50.522Zm-15.955,0a2.659,2.659,0,1,1,2.659,2.659A2.659,2.659,0,0,1,31.909,50.522Zm-15.954,0a2.659,2.659,0,1,1,2.659,2.659A2.659,2.659,0,0,1,15.955,50.522ZM0,50.522a2.659,2.659,0,1,1,2.659,2.659A2.659,2.659,0,0,1,0,50.522ZM111.682,34.568a2.659,2.659,0,1,1,2.659,2.659A2.659,2.659,0,0,1,111.682,34.568Zm-15.955,0a2.659,2.659,0,1,1,2.659,2.659A2.659,2.659,0,0,1,95.727,34.568Zm-15.955,0a2.659,2.659,0,1,1,2.659,2.659A2.659,2.659,0,0,1,79.772,34.568Zm-15.954,0a2.659,2.659,0,1,1,2.659,2.659A2.659,2.659,0,0,1,63.818,34.568Zm-15.955,0a2.659,2.659,0,1,1,2.659,2.659A2.659,2.659,0,0,1,47.864,34.568Zm-15.955,0a2.659,2.659,0,1,1,2.659,2.659A2.659,2.659,0,0,1,31.909,34.568Zm-15.954,0a2.659,2.659,0,1,1,2.659,2.659A2.659,2.659,0,0,1,15.955,34.568ZM0,34.568a2.659,2.659,0,1,1,2.659,2.659A2.659,2.659,0,0,1,0,34.568ZM111.682,18.614a2.659,2.659,0,1,1,2.659,2.659A2.659,2.659,0,0,1,111.682,18.614Zm-15.955,0a2.659,2.659,0,1,1,2.659,2.659A2.659,2.659,0,0,1,95.727,18.614Zm-15.955,0a2.659,2.659,0,1,1,2.659,2.659A2.659,2.659,0,0,1,79.772,18.614Zm-15.954,0a2.659,2.659,0,1,1,2.659,2.659A2.659,2.659,0,0,1,63.818,18.614Zm-15.955,0a2.659,2.659,0,1,1,2.659,2.659A2.659,2.659,0,0,1,47.864,18.614Zm-15.955,0a2.659,2.659,0,1,1,2.659,2.659A2.659,2.659,0,0,1,31.909,18.614Zm-15.954,0a2.659,2.659,0,1,1,2.659,2.659A2.659,2.659,0,0,1,15.955,18.614ZM0,18.614a2.659,2.659,0,1,1,2.659,2.659A2.659,2.659,0,0,1,0,18.614ZM111.682,2.659a2.659,2.659,0,1,1,2.659,2.659A2.659,2.659,0,0,1,111.682,2.659Zm-15.955,0a2.659,2.659,0,1,1,2.659,2.659A2.659,2.659,0,0,1,95.727,2.659Zm-15.955,0a2.659,2.659,0,1,1,2.659,2.659A2.659,2.659,0,0,1,79.772,2.659Zm-15.954,0a2.659,2.659,0,1,1,2.659,2.659A2.659,2.659,0,0,1,63.818,2.659Zm-15.955,0a2.659,2.659,0,1,1,2.659,2.659A2.659,2.659,0,0,1,47.864,2.659Zm-15.955,0a2.659,2.659,0,1,1,2.659,2.659A2.659,2.659,0,0,1,31.909,2.659Zm-15.954,0a2.659,2.659,0,1,1,2.659,2.659A2.659,2.659,0,0,1,15.955,2.659ZM0,2.659A2.659,2.659,0,1,1,2.659,5.318,2.659,2.659,0,0,1,0,2.659Z" transform="translate(13.201 1352.201)" fill="#fff"/>
    <rect id="Rectangle_229" data-name="Rectangle 229" width="97" height="90" transform="translate(24.201 1359.201)" fill="#fff" stroke="rgba(0,0,0,0)" stroke-miterlimit="10" stroke-width="1" opacity="0"/>
  </g>
</svg>
