<svg xmlns="http://www.w3.org/2000/svg" width="117" height="85.091" viewBox="0 0 117 85.091"><path d="M111.682,82.432a2.659,2.659,0,1,1,2.659,2.66A2.658,2.658,0,0,1,111.682,82.432Zm-15.955,0a2.659,2.659,0,1,1,2.66,2.66A2.659,2.659,0,0,1,95.727,82.432Zm-15.954,0a2.659,2.659,0,1,1,2.66,2.66A2.659,2.659,0,0,1,79.772,82.432Zm-15.954,0a2.659,2.659,0,1,1,2.659,2.66A2.659,2.659,0,0,1,63.818,82.432Zm-15.954,0a2.659,2.659,0,1,1,2.659,2.66A2.658,2.658,0,0,1,47.864,82.432Zm-15.955,0a2.66,2.66,0,1,1,2.66,2.66A2.659,2.659,0,0,1,31.909,82.432Zm-15.954,0a2.659,2.659,0,1,1,2.66,2.66A2.659,2.659,0,0,1,15.954,82.432ZM0,82.432a2.659,2.659,0,1,1,2.66,2.66A2.659,2.659,0,0,1,0,82.432ZM111.682,66.478a2.659,2.659,0,1,1,2.659,2.659A2.659,2.659,0,0,1,111.682,66.478Zm-15.955,0a2.659,2.659,0,1,1,2.66,2.659A2.66,2.66,0,0,1,95.727,66.478Zm-15.954,0a2.659,2.659,0,1,1,2.66,2.659A2.66,2.66,0,0,1,79.772,66.478Zm-15.954,0a2.659,2.659,0,1,1,2.659,2.659A2.659,2.659,0,0,1,63.818,66.478Zm-15.954,0a2.659,2.659,0,1,1,2.659,2.659A2.659,2.659,0,0,1,47.864,66.478Zm-15.955,0a2.66,2.66,0,1,1,2.66,2.659A2.66,2.66,0,0,1,31.909,66.478Zm-15.954,0a2.659,2.659,0,1,1,2.66,2.659A2.66,2.66,0,0,1,15.954,66.478ZM0,66.478a2.659,2.659,0,1,1,2.66,2.659A2.66,2.66,0,0,1,0,66.478ZM111.682,50.523a2.659,2.659,0,1,1,2.659,2.659A2.659,2.659,0,0,1,111.682,50.523Zm-15.955,0a2.659,2.659,0,1,1,2.66,2.659A2.66,2.66,0,0,1,95.727,50.523Zm-15.954,0a2.659,2.659,0,1,1,2.66,2.659A2.66,2.66,0,0,1,79.772,50.523Zm-15.954,0a2.659,2.659,0,1,1,2.659,2.659A2.659,2.659,0,0,1,63.818,50.523Zm-15.954,0a2.659,2.659,0,1,1,2.659,2.659A2.659,2.659,0,0,1,47.864,50.523Zm-15.955,0a2.66,2.66,0,1,1,2.66,2.659A2.66,2.66,0,0,1,31.909,50.523Zm-15.954,0a2.659,2.659,0,1,1,2.66,2.659A2.66,2.66,0,0,1,15.954,50.523ZM0,50.523a2.659,2.659,0,1,1,2.66,2.659A2.66,2.66,0,0,1,0,50.523ZM111.682,34.568a2.659,2.659,0,1,1,2.659,2.66A2.659,2.659,0,0,1,111.682,34.568Zm-15.955,0a2.659,2.659,0,1,1,2.66,2.66A2.659,2.659,0,0,1,95.727,34.568Zm-15.954,0a2.659,2.659,0,1,1,2.66,2.66A2.659,2.659,0,0,1,79.772,34.568Zm-15.954,0a2.659,2.659,0,1,1,2.659,2.66A2.659,2.659,0,0,1,63.818,34.568Zm-15.954,0a2.659,2.659,0,1,1,2.659,2.66A2.659,2.659,0,0,1,47.864,34.568Zm-15.955,0a2.66,2.66,0,1,1,2.66,2.66A2.659,2.659,0,0,1,31.909,34.568Zm-15.954,0a2.659,2.659,0,1,1,2.66,2.66A2.659,2.659,0,0,1,15.954,34.568ZM0,34.568a2.659,2.659,0,1,1,2.66,2.66A2.659,2.659,0,0,1,0,34.568ZM111.682,18.614a2.659,2.659,0,1,1,2.659,2.66A2.658,2.658,0,0,1,111.682,18.614Zm-15.955,0a2.659,2.659,0,1,1,2.66,2.66A2.659,2.659,0,0,1,95.727,18.614Zm-15.954,0a2.659,2.659,0,1,1,2.66,2.66A2.659,2.659,0,0,1,79.772,18.614Zm-15.954,0a2.659,2.659,0,1,1,2.659,2.66A2.659,2.659,0,0,1,63.818,18.614Zm-15.954,0a2.659,2.659,0,1,1,2.659,2.66A2.658,2.658,0,0,1,47.864,18.614Zm-15.955,0a2.66,2.66,0,1,1,2.66,2.66A2.659,2.659,0,0,1,31.909,18.614Zm-15.954,0a2.659,2.659,0,1,1,2.66,2.66A2.659,2.659,0,0,1,15.954,18.614ZM0,18.614a2.659,2.659,0,1,1,2.66,2.66A2.659,2.659,0,0,1,0,18.614ZM111.682,2.66a2.659,2.659,0,1,1,2.659,2.66A2.659,2.659,0,0,1,111.682,2.66Zm-15.955,0a2.659,2.659,0,1,1,2.66,2.66A2.66,2.66,0,0,1,95.727,2.66Zm-15.954,0a2.659,2.659,0,1,1,2.66,2.66A2.66,2.66,0,0,1,79.772,2.66Zm-15.954,0a2.659,2.659,0,1,1,2.659,2.66A2.659,2.659,0,0,1,63.818,2.66Zm-15.954,0a2.659,2.659,0,1,1,2.659,2.66A2.659,2.659,0,0,1,47.864,2.66Zm-15.955,0a2.66,2.66,0,1,1,2.66,2.66A2.66,2.66,0,0,1,31.909,2.66Zm-15.954,0a2.659,2.659,0,1,1,2.66,2.66A2.66,2.66,0,0,1,15.954,2.66ZM0,2.66a2.659,2.659,0,1,1,2.66,2.66A2.66,2.66,0,0,1,0,2.66Z" transform="translate(0 0)" fill="#fff"/></svg>