<svg xmlns="http://www.w3.org/2000/svg" width="139.864" height="90.864" viewBox="0 0 139.864 90.864">
  <g id="Group_8917" data-name="Group 8917" transform="translate(-747.136 -1114.136)">
    <g id="Repeat_Grid_4" data-name="Repeat Grid 4" transform="translate(747.136 1114.136)" opacity="0.5">
      <g transform="translate(-1367.136 -939.136)">
        <circle id="Oval" cx="2" cy="2" r="2" transform="translate(1367.136 939.136)" fill="#1e87f0"/>
      </g>
      <g transform="translate(-1354.136 -939.136)">
        <circle id="Oval-2" data-name="Oval" cx="2" cy="2" r="2" transform="translate(1367.136 939.136)" fill="#1e87f0"/>
      </g>
      <g transform="translate(-1341.136 -939.136)">
        <circle id="Oval-3" data-name="Oval" cx="2" cy="2" r="2" transform="translate(1367.136 939.136)" fill="#1e87f0"/>
      </g>
      <g transform="translate(-1328.136 -939.136)">
        <circle id="Oval-4" data-name="Oval" cx="2" cy="2" r="2" transform="translate(1367.136 939.136)" fill="#1e87f0"/>
      </g>
      <g transform="translate(-1315.136 -939.136)">
        <circle id="Oval-5" data-name="Oval" cx="2" cy="2" r="2" transform="translate(1367.136 939.136)" fill="#1e87f0"/>
      </g>
      <g transform="translate(-1302.136 -939.136)">
        <circle id="Oval-6" data-name="Oval" cx="2" cy="2" r="2" transform="translate(1367.136 939.136)" fill="#1e87f0"/>
      </g>
      <g transform="translate(-1289.136 -939.136)">
        <circle id="Oval-7" data-name="Oval" cx="2" cy="2" r="2" transform="translate(1367.136 939.136)" fill="#1e87f0"/>
      </g>
      <g transform="translate(-1276.136 -939.136)">
        <circle id="Oval-8" data-name="Oval" cx="2" cy="2" r="2" transform="translate(1367.136 939.136)" fill="#1e87f0"/>
      </g>
      <g transform="translate(-1263.136 -939.136)">
        <circle id="Oval-9" data-name="Oval" cx="2" cy="2" r="2" transform="translate(1367.136 939.136)" fill="#1e87f0"/>
      </g>
      <g transform="translate(-1250.136 -939.136)">
        <circle id="Oval-10" data-name="Oval" cx="2" cy="2" r="2" transform="translate(1367.136 939.136)" fill="#1e87f0"/>
      </g>
      <g transform="translate(-1237.136 -939.136)">
        <circle id="Oval-11" data-name="Oval" cx="2" cy="2" r="2" transform="translate(1367.136 939.136)" fill="#1e87f0"/>
      </g>
      <g transform="translate(-1367.136 -926.136)">
        <circle id="Oval-12" data-name="Oval" cx="2" cy="2" r="2" transform="translate(1367.136 939.136)" fill="#1e87f0"/>
      </g>
      <g transform="translate(-1354.136 -926.136)">
        <circle id="Oval-13" data-name="Oval" cx="2" cy="2" r="2" transform="translate(1367.136 939.136)" fill="#1e87f0"/>
      </g>
      <g transform="translate(-1341.136 -926.136)">
        <circle id="Oval-14" data-name="Oval" cx="2" cy="2" r="2" transform="translate(1367.136 939.136)" fill="#1e87f0"/>
      </g>
      <g transform="translate(-1328.136 -926.136)">
        <circle id="Oval-15" data-name="Oval" cx="2" cy="2" r="2" transform="translate(1367.136 939.136)" fill="#1e87f0"/>
      </g>
      <g transform="translate(-1315.136 -926.136)">
        <circle id="Oval-16" data-name="Oval" cx="2" cy="2" r="2" transform="translate(1367.136 939.136)" fill="#1e87f0"/>
      </g>
      <g transform="translate(-1302.136 -926.136)">
        <circle id="Oval-17" data-name="Oval" cx="2" cy="2" r="2" transform="translate(1367.136 939.136)" fill="#1e87f0"/>
      </g>
      <g transform="translate(-1289.136 -926.136)">
        <circle id="Oval-18" data-name="Oval" cx="2" cy="2" r="2" transform="translate(1367.136 939.136)" fill="#1e87f0"/>
      </g>
      <g transform="translate(-1276.136 -926.136)">
        <circle id="Oval-19" data-name="Oval" cx="2" cy="2" r="2" transform="translate(1367.136 939.136)" fill="#1e87f0"/>
      </g>
      <g transform="translate(-1263.136 -926.136)">
        <circle id="Oval-20" data-name="Oval" cx="2" cy="2" r="2" transform="translate(1367.136 939.136)" fill="#1e87f0"/>
      </g>
      <g transform="translate(-1250.136 -926.136)">
        <circle id="Oval-21" data-name="Oval" cx="2" cy="2" r="2" transform="translate(1367.136 939.136)" fill="#1e87f0"/>
      </g>
      <g transform="translate(-1237.136 -926.136)">
        <circle id="Oval-22" data-name="Oval" cx="2" cy="2" r="2" transform="translate(1367.136 939.136)" fill="#1e87f0"/>
      </g>
      <g transform="translate(-1367.136 -913.136)">
        <circle id="Oval-23" data-name="Oval" cx="2" cy="2" r="2" transform="translate(1367.136 939.136)" fill="#1e87f0"/>
      </g>
      <g transform="translate(-1354.136 -913.136)">
        <circle id="Oval-24" data-name="Oval" cx="2" cy="2" r="2" transform="translate(1367.136 939.136)" fill="#1e87f0"/>
      </g>
      <g transform="translate(-1341.136 -913.136)">
        <circle id="Oval-25" data-name="Oval" cx="2" cy="2" r="2" transform="translate(1367.136 939.136)" fill="#1e87f0"/>
      </g>
      <g transform="translate(-1328.136 -913.136)">
        <circle id="Oval-26" data-name="Oval" cx="2" cy="2" r="2" transform="translate(1367.136 939.136)" fill="#1e87f0"/>
      </g>
      <g transform="translate(-1315.136 -913.136)">
        <circle id="Oval-27" data-name="Oval" cx="2" cy="2" r="2" transform="translate(1367.136 939.136)" fill="#1e87f0"/>
      </g>
      <g transform="translate(-1302.136 -913.136)">
        <circle id="Oval-28" data-name="Oval" cx="2" cy="2" r="2" transform="translate(1367.136 939.136)" fill="#1e87f0"/>
      </g>
      <g transform="translate(-1289.136 -913.136)">
        <circle id="Oval-29" data-name="Oval" cx="2" cy="2" r="2" transform="translate(1367.136 939.136)" fill="#1e87f0"/>
      </g>
      <g transform="translate(-1276.136 -913.136)">
        <circle id="Oval-30" data-name="Oval" cx="2" cy="2" r="2" transform="translate(1367.136 939.136)" fill="#1e87f0"/>
      </g>
      <g transform="translate(-1263.136 -913.136)">
        <circle id="Oval-31" data-name="Oval" cx="2" cy="2" r="2" transform="translate(1367.136 939.136)" fill="#1e87f0"/>
      </g>
      <g transform="translate(-1250.136 -913.136)">
        <circle id="Oval-32" data-name="Oval" cx="2" cy="2" r="2" transform="translate(1367.136 939.136)" fill="#1e87f0"/>
      </g>
      <g transform="translate(-1237.136 -913.136)">
        <circle id="Oval-33" data-name="Oval" cx="2" cy="2" r="2" transform="translate(1367.136 939.136)" fill="#1e87f0"/>
      </g>
      <g transform="translate(-1367.136 -900.136)">
        <circle id="Oval-34" data-name="Oval" cx="2" cy="2" r="2" transform="translate(1367.136 939.136)" fill="#1e87f0"/>
      </g>
      <g transform="translate(-1354.136 -900.136)">
        <circle id="Oval-35" data-name="Oval" cx="2" cy="2" r="2" transform="translate(1367.136 939.136)" fill="#1e87f0"/>
      </g>
      <g transform="translate(-1341.136 -900.136)">
        <circle id="Oval-36" data-name="Oval" cx="2" cy="2" r="2" transform="translate(1367.136 939.136)" fill="#1e87f0"/>
      </g>
      <g transform="translate(-1328.136 -900.136)">
        <circle id="Oval-37" data-name="Oval" cx="2" cy="2" r="2" transform="translate(1367.136 939.136)" fill="#1e87f0"/>
      </g>
      <g transform="translate(-1315.136 -900.136)">
        <circle id="Oval-38" data-name="Oval" cx="2" cy="2" r="2" transform="translate(1367.136 939.136)" fill="#1e87f0"/>
      </g>
      <g transform="translate(-1302.136 -900.136)">
        <circle id="Oval-39" data-name="Oval" cx="2" cy="2" r="2" transform="translate(1367.136 939.136)" fill="#1e87f0"/>
      </g>
      <g transform="translate(-1289.136 -900.136)">
        <circle id="Oval-40" data-name="Oval" cx="2" cy="2" r="2" transform="translate(1367.136 939.136)" fill="#1e87f0"/>
      </g>
      <g transform="translate(-1276.136 -900.136)">
        <circle id="Oval-41" data-name="Oval" cx="2" cy="2" r="2" transform="translate(1367.136 939.136)" fill="#1e87f0"/>
      </g>
      <g transform="translate(-1263.136 -900.136)">
        <circle id="Oval-42" data-name="Oval" cx="2" cy="2" r="2" transform="translate(1367.136 939.136)" fill="#1e87f0"/>
      </g>
      <g transform="translate(-1250.136 -900.136)">
        <circle id="Oval-43" data-name="Oval" cx="2" cy="2" r="2" transform="translate(1367.136 939.136)" fill="#1e87f0"/>
      </g>
      <g transform="translate(-1237.136 -900.136)">
        <circle id="Oval-44" data-name="Oval" cx="2" cy="2" r="2" transform="translate(1367.136 939.136)" fill="#1e87f0"/>
      </g>
      <g transform="translate(-1367.136 -887.136)">
        <circle id="Oval-45" data-name="Oval" cx="2" cy="2" r="2" transform="translate(1367.136 939.136)" fill="#1e87f0"/>
      </g>
      <g transform="translate(-1354.136 -887.136)">
        <circle id="Oval-46" data-name="Oval" cx="2" cy="2" r="2" transform="translate(1367.136 939.136)" fill="#1e87f0"/>
      </g>
      <g transform="translate(-1341.136 -887.136)">
        <circle id="Oval-47" data-name="Oval" cx="2" cy="2" r="2" transform="translate(1367.136 939.136)" fill="#1e87f0"/>
      </g>
      <g transform="translate(-1328.136 -887.136)">
        <circle id="Oval-48" data-name="Oval" cx="2" cy="2" r="2" transform="translate(1367.136 939.136)" fill="#1e87f0"/>
      </g>
      <g transform="translate(-1315.136 -887.136)">
        <circle id="Oval-49" data-name="Oval" cx="2" cy="2" r="2" transform="translate(1367.136 939.136)" fill="#1e87f0"/>
      </g>
      <g transform="translate(-1302.136 -887.136)">
        <circle id="Oval-50" data-name="Oval" cx="2" cy="2" r="2" transform="translate(1367.136 939.136)" fill="#1e87f0"/>
      </g>
      <g transform="translate(-1289.136 -887.136)">
        <circle id="Oval-51" data-name="Oval" cx="2" cy="2" r="2" transform="translate(1367.136 939.136)" fill="#1e87f0"/>
      </g>
      <g transform="translate(-1276.136 -887.136)">
        <circle id="Oval-52" data-name="Oval" cx="2" cy="2" r="2" transform="translate(1367.136 939.136)" fill="#1e87f0"/>
      </g>
      <g transform="translate(-1263.136 -887.136)">
        <circle id="Oval-53" data-name="Oval" cx="2" cy="2" r="2" transform="translate(1367.136 939.136)" fill="#1e87f0"/>
      </g>
      <g transform="translate(-1250.136 -887.136)">
        <circle id="Oval-54" data-name="Oval" cx="2" cy="2" r="2" transform="translate(1367.136 939.136)" fill="#1e87f0"/>
      </g>
      <g transform="translate(-1237.136 -887.136)">
        <circle id="Oval-55" data-name="Oval" cx="2" cy="2" r="2" transform="translate(1367.136 939.136)" fill="#1e87f0"/>
      </g>
      <g transform="translate(-1367.136 -874.136)">
        <circle id="Oval-56" data-name="Oval" cx="2" cy="2" r="2" transform="translate(1367.136 939.136)" fill="#1e87f0"/>
      </g>
      <g transform="translate(-1354.136 -874.136)">
        <circle id="Oval-57" data-name="Oval" cx="2" cy="2" r="2" transform="translate(1367.136 939.136)" fill="#1e87f0"/>
      </g>
      <g transform="translate(-1341.136 -874.136)">
        <circle id="Oval-58" data-name="Oval" cx="2" cy="2" r="2" transform="translate(1367.136 939.136)" fill="#1e87f0"/>
      </g>
      <g transform="translate(-1328.136 -874.136)">
        <circle id="Oval-59" data-name="Oval" cx="2" cy="2" r="2" transform="translate(1367.136 939.136)" fill="#1e87f0"/>
      </g>
      <g transform="translate(-1315.136 -874.136)">
        <circle id="Oval-60" data-name="Oval" cx="2" cy="2" r="2" transform="translate(1367.136 939.136)" fill="#1e87f0"/>
      </g>
      <g transform="translate(-1302.136 -874.136)">
        <circle id="Oval-61" data-name="Oval" cx="2" cy="2" r="2" transform="translate(1367.136 939.136)" fill="#1e87f0"/>
      </g>
      <g transform="translate(-1289.136 -874.136)">
        <circle id="Oval-62" data-name="Oval" cx="2" cy="2" r="2" transform="translate(1367.136 939.136)" fill="#1e87f0"/>
      </g>
      <g transform="translate(-1276.136 -874.136)">
        <circle id="Oval-63" data-name="Oval" cx="2" cy="2" r="2" transform="translate(1367.136 939.136)" fill="#1e87f0"/>
      </g>
      <g transform="translate(-1263.136 -874.136)">
        <circle id="Oval-64" data-name="Oval" cx="2" cy="2" r="2" transform="translate(1367.136 939.136)" fill="#1e87f0"/>
      </g>
      <g transform="translate(-1250.136 -874.136)">
        <circle id="Oval-65" data-name="Oval" cx="2" cy="2" r="2" transform="translate(1367.136 939.136)" fill="#1e87f0"/>
      </g>
      <g transform="translate(-1237.136 -874.136)">
        <circle id="Oval-66" data-name="Oval" cx="2" cy="2" r="2" transform="translate(1367.136 939.136)" fill="#1e87f0"/>
      </g>
      <g transform="translate(-1367.136 -861.136)">
        <circle id="Oval-67" data-name="Oval" cx="2" cy="2" r="2" transform="translate(1367.136 939.136)" fill="#1e87f0"/>
      </g>
      <g transform="translate(-1354.136 -861.136)">
        <circle id="Oval-68" data-name="Oval" cx="2" cy="2" r="2" transform="translate(1367.136 939.136)" fill="#1e87f0"/>
      </g>
      <g transform="translate(-1341.136 -861.136)">
        <circle id="Oval-69" data-name="Oval" cx="2" cy="2" r="2" transform="translate(1367.136 939.136)" fill="#1e87f0"/>
      </g>
      <g transform="translate(-1328.136 -861.136)">
        <circle id="Oval-70" data-name="Oval" cx="2" cy="2" r="2" transform="translate(1367.136 939.136)" fill="#1e87f0"/>
      </g>
      <g transform="translate(-1315.136 -861.136)">
        <circle id="Oval-71" data-name="Oval" cx="2" cy="2" r="2" transform="translate(1367.136 939.136)" fill="#1e87f0"/>
      </g>
      <g transform="translate(-1302.136 -861.136)">
        <circle id="Oval-72" data-name="Oval" cx="2" cy="2" r="2" transform="translate(1367.136 939.136)" fill="#1e87f0"/>
      </g>
      <g transform="translate(-1289.136 -861.136)">
        <circle id="Oval-73" data-name="Oval" cx="2" cy="2" r="2" transform="translate(1367.136 939.136)" fill="#1e87f0"/>
      </g>
      <g transform="translate(-1276.136 -861.136)">
        <circle id="Oval-74" data-name="Oval" cx="2" cy="2" r="2" transform="translate(1367.136 939.136)" fill="#1e87f0"/>
      </g>
      <g transform="translate(-1263.136 -861.136)">
        <circle id="Oval-75" data-name="Oval" cx="2" cy="2" r="2" transform="translate(1367.136 939.136)" fill="#1e87f0"/>
      </g>
      <g transform="translate(-1250.136 -861.136)">
        <circle id="Oval-76" data-name="Oval" cx="2" cy="2" r="2" transform="translate(1367.136 939.136)" fill="#1e87f0"/>
      </g>
      <g transform="translate(-1237.136 -861.136)">
        <circle id="Oval-77" data-name="Oval" cx="2" cy="2" r="2" transform="translate(1367.136 939.136)" fill="#1e87f0"/>
      </g>
    </g>
    <rect id="Rectangle_764" data-name="Rectangle 764" width="115" height="62" transform="translate(772 1125)" fill="rgba(255,255,255,0)"/>
  </g>
</svg>