<svg xmlns="http://www.w3.org/2000/svg" width="213.277" height="213.277" viewBox="0 0 213.277 213.277">
  <g id="Group_8792" data-name="Group 8792" transform="translate(112.498 -43.302) rotate(45)" opacity="0.4">
    <path id="Path_19840" data-name="Path 19840" d="M125.531,36.249c-.4-.31-.6.471-.83.234-2.571-2.7-4.835-5.939-7.537-8.4-.29.219-.408.53-.948.605a49.445,49.445,0,0,1-6.8,6.077c-2.355,1.943-4.636,4.055-6.9,6.1C88.878,53.218,75.542,65.7,62.049,78.024c-1.222,2.065-3.672,3.307-5.729,5.1-3.33,2.9-6.073,5.775-9.349,8.93C45.926,93.06,43.5,96.029,42.3,96.518c-.991.4-2.341.189-3.466.424a35.923,35.923,0,0,0-5.679,1.722c1.82,7.665,4.308,16.372,6.43,23.846.54,1.913.7,3.489,1.487,4.848.87.472,1.508,1.368,2.709,1.25,3.615,14.928,8.578,29.451,12.585,43.96.267.441-.048.559-.106.814.484-.046.38.312.517.64.96,2.292,1.353,5.2,2.208,7.779s1.734,4.918,2.521,6.911c.368-.154.476-.345.68.03,1.437,2.435,3.721,3.347,6.839,2.77.02.3-.734.438-.239.738.812-.026.958-.837,1.691-1.15a8.563,8.563,0,0,1,1.276-.252c4.258-.99,9.593-2.811,13.931-3.839-.036.854-.65,1.382-.983,2.072.991-.411,1.233-1.891,2.228-2.425a16.851,16.851,0,0,1,3.454-.869c4.361-1.049,9.042-2.949,13.176-3.738.348-.152.259.476.562.4,2.455-1.895,6.917-2.357,10.435-3.521q5.91-1.954,11.723-3.327c-.232.685-1.18.971-1.174,1.792,1.116-.255,1.3-1.611,2.213-2.087,1.275-.663,3.057-.711,4.519-1.056,3.736-.88,7.753-2.3,11.444-3.135.457-.3.474.189.814.1,5.342-1.939,13.882-3.875,20.07-5.916,3.315-1.094,7.043-2.77,6.128-5.664,1.5-3.065-2.883-9.263-1.978-12.1-.39-.083-.36.635-.517.146a91.75,91.75,0,0,1-2.074-9.276,56.271,56.271,0,0,1-2.932-8.361c-.4-1.517-1.127-3.02-.643-3.856-.4-.1-.467-.333-.65-.711-.806-1.643-1.023-4.494-1.8-6.329-.035-.544.658-.68.4-1.348-.089-.31-.726.366-.711-.136-.451-1.356-.807-2.66-.451-3.569-.209.008-.587.318-.579-.061.073-1.535-1.238-3.322-1.25-4.8-.007-.792.779-1.023.521-1.717-.542-.007-.471.781-.845.578-1.1-4.167-1.991-8.218-3.322-12.51a13.863,13.863,0,0,1,1.6-.678c.215-.835-.078-.985-.426-1.9-1.432-3.761-2.354-9.317-3.677-12.969-10.819,1.845-21.99,5.119-33.29,8.321-16.859,4.782-33.7,9.762-50.038,14.083-1.193-1.237-2.571-2.854-4.169-2.851,5.3-4.847,10.027-10.4,15.673-15.1s10.653-10.052,16.17-14.9c5.536-4.863,10.952-9.884,16.309-14.827,5.339-4.926,10.083-10.5,15.628-14.859-.254-1.421-1.139-1.714-1.726-2.536C125.1,37.095,126.116,36.621,125.531,36.249Z" transform="translate(0 0)" fill="#e0e0e0" fill-rule="evenodd"/>
    <path id="Path_19841" data-name="Path 19841" d="M85.3,30.435c.395,1.036-.153,1.547-.774,2.014C83.99,31.713,84.429,30.122,85.3,30.435Z" transform="translate(33.629 1.52)" fill="#fff" fill-rule="evenodd"/>
    <path id="Path_19842" data-name="Path 19842" d="M84.059,31.521c.822,3.4,1.23,7.325,2.128,11.056-1.863,1.639-3.554,3.375-5.417,5.013-.834-3.872-1.067-7.409-1.979-11.321C80.588,34.709,82.4,33.157,84.059,31.521Z" transform="translate(30.011 2.26)" fill="#fff" fill-rule="evenodd"/>
    <path id="Path_19843" data-name="Path 19843" d="M86.761,32.227c-.2,1.024-.149,2.188-1.517,2.559C85.692,33.954,85.464,32.3,86.761,32.227Z" transform="translate(34.255 2.724)" fill="#fff" fill-rule="evenodd"/>
    <path id="Path_19844" data-name="Path 19844" d="M77.484,35.514c.464-.187.847.368.756.683A1.2,1.2,0,0,1,77.484,35.514Z" transform="translate(29.152 4.861)" fill="#fff" fill-rule="evenodd"/>
    <path id="Path_19845" data-name="Path 19845" d="M77.544,35.741c.038.189.189.182.22.385-.313.093-.665.254-.709-.134C77.317,35.963,77.224,35.736,77.544,35.741Z" transform="translate(28.869 5.035)" fill="#fff" fill-rule="evenodd"/>
    <path id="Path_19846" data-name="Path 19846" d="M75.945,38.888c1.334,4.035,1.293,8.059,2.215,12.152-2.087,1.719-3.912,3.58-5.876,5.366-.769-4.217-1.328-8.528-2.138-12.283C72.023,42.349,74.175,40.725,75.945,38.888Z" transform="translate(24.325 7.105)" fill="#fff" fill-rule="evenodd"/>
    <path id="Path_19847" data-name="Path 19847" d="M85.746,40.105c-1.866,1.636-3.5,3.406-5.415,5.013.088-.448-.322-1.172-.234-1.616,1.689-1.619,3.453-3.2,5.135-4.819C85.822,38.743,85.474,39.656,85.746,40.105Z" transform="translate(30.862 6.97)" fill="#fff" fill-rule="evenodd"/>
    <path id="Path_19848" data-name="Path 19848" d="M70.01,44.447A2.893,2.893,0,0,1,68.9,43.305C69.771,42.259,69.733,43.416,70.01,44.447Z" transform="translate(23.506 9.739)" fill="#fff" fill-rule="evenodd"/>
    <path id="Path_19849" data-name="Path 19849" d="M68.846,43.339c.476.24.767.812,1.137,1.245-.245.068-.252.265-.593.282a4.47,4.47,0,0,0-.945-.965C68.4,43.611,68.826,43.591,68.846,43.339Z" transform="translate(23.205 10.032)" fill="#fff" fill-rule="evenodd"/>
    <path id="Path_19850" data-name="Path 19850" d="M69.394,44.958c-.187.068-.325.164-.353.325a2.62,2.62,0,0,1-1.107-1.145C68.572,43.346,69.018,44.385,69.394,44.958Z" transform="translate(22.871 10.368)" fill="#fff" fill-rule="evenodd"/>
    <path id="Path_19851" data-name="Path 19851" d="M68.053,44.267a7.969,7.969,0,0,0,.84.993,1.063,1.063,0,0,1-.532.487,6.456,6.456,0,0,1-.948-.965C67.622,44.608,67.647,44.332,68.053,44.267Z" transform="translate(22.529 10.642)" fill="#fff" fill-rule="evenodd"/>
    <path id="Path_19852" data-name="Path 19852" d="M67.3,44.712a2.4,2.4,0,0,1,.976,1.067c-.06.114-.267.143-.254.3-.428-.119-.605-.688-1.021-.832C66.968,44.992,67.258,44.921,67.3,44.712Z" transform="translate(22.256 10.935)" fill="#fff" fill-rule="evenodd"/>
    <path id="Path_19853" data-name="Path 19853" d="M66.848,45.185a1.555,1.555,0,0,1,.976,1.067c-.191.07-.327.167-.358.325a2.416,2.416,0,0,1-.976-1.068C66.631,45.412,66.707,45.283,66.848,45.185Z" transform="translate(21.922 11.246)" fill="#fff" fill-rule="evenodd"/>
    <path id="Path_19854" data-name="Path 19854" d="M66.149,45.7c.673-.159.806.646,1.182,1.011-.262.088-.308.293-.431.459C66.5,47.031,65.771,46.244,66.149,45.7Z" transform="translate(21.628 11.571)" fill="#fff" fill-rule="evenodd"/>
    <path id="Path_19855" data-name="Path 19855" d="M69.775,59.831a64.51,64.51,0,0,1-6.349,5.274c-.658-4.209-1.363-8.444-2.153-12.729,2.09-1.918,4.167-3.846,6.337-5.72C68.26,50.657,68.664,55.277,69.775,59.831Z" transform="translate(18.491 12.213)" fill="#fff" fill-rule="evenodd"/>
    <path id="Path_19856" data-name="Path 19856" d="M81.167,42.822c.277.076.244.711.4,1.008-1.817,1.75-3.585,3.531-5.593,5.173-.272-1.016.758-.976,1.29-1.374.355-.269.429-.65.8-1.126.622-.789,1.649-1.532,2.18-2.186C80.623,43.853,80.772,43.346,81.167,42.822Z" transform="translate(28.128 9.692)" fill="#fff" fill-rule="evenodd"/>
    <path id="Path_19857" data-name="Path 19857" d="M70.493,45.7c-.93,1.318-1.387,2.9-2.541,4.084a19.032,19.032,0,0,1,1.991-4.04A.7.7,0,0,1,70.493,45.7Z" transform="translate(22.883 11.557)" fill="#fff" fill-rule="evenodd"/>
    <path id="Path_19858" data-name="Path 19858" d="M72.024,47.032a10.316,10.316,0,0,1-1.411,3.317,9.748,9.748,0,0,1-1.979,2.914A19.953,19.953,0,0,1,72.024,47.032Z" transform="translate(23.332 12.46)" fill="#fff" fill-rule="evenodd"/>
    <path id="Path_19859" data-name="Path 19859" d="M77.225,46.362c.335.086.651,1.019.593,1.291a58.526,58.526,0,0,1-6.131,5.661,2.674,2.674,0,0,0-.192-1.067C73.487,50.332,75.407,48.374,77.225,46.362Z" transform="translate(25.213 12.02)" fill="#fff" fill-rule="evenodd"/>
    <path id="Path_19860" data-name="Path 19860" d="M60.8,50.857c.038.4.116.821.118,1.2a2.625,2.625,0,0,1-.782-.787C60.469,51.194,60.4,50.9,60.8,50.857Z" transform="translate(17.743 14.976)" fill="#fff" fill-rule="evenodd"/>
    <path id="Path_19861" data-name="Path 19861" d="M59.875,51.383c.37-.012.721.59.681.816A1.637,1.637,0,0,1,59.875,51.383Z" transform="translate(17.572 15.321)" fill="#fff" fill-rule="evenodd"/>
    <path id="Path_19862" data-name="Path 19862" d="M59.7,51.684c.388-.119.388.451.695.476.07.3-.38.312-.668.414-.058-.312-.327-.254-.383-.564C59.528,51.94,59.664,51.843,59.7,51.684Z" transform="translate(17.219 15.508)" fill="#fff" fill-rule="evenodd"/>
    <path id="Path_19863" data-name="Path 19863" d="M58.895,52.364a.435.435,0,0,1,.283.593c-.308.186-.293-.207-.506-.194C58.575,52.533,58.94,52.563,58.895,52.364Z" transform="translate(16.77 15.967)" fill="#fff" fill-rule="evenodd"/>
    <path id="Path_19864" data-name="Path 19864" d="M58.431,52.757c.224.015.355.2.458.431-.355.217-.4-.126-.605-.166C58.275,52.9,58.467,52.893,58.431,52.757Z" transform="translate(16.525 16.225)" fill="#fff" fill-rule="evenodd"/>
    <path id="Path_19865" data-name="Path 19865" d="M57.943,53.182c.1-.027.207-.058.31-.086l.146.519C58.112,53.713,58.029,53.444,57.943,53.182Z" transform="translate(16.301 16.448)" fill="#fff" fill-rule="evenodd"/>
    <path id="Path_19866" data-name="Path 19866" d="M57.354,53.657c.269.036.434.262.517.638C57.553,54.34,57.23,53.922,57.354,53.657Z" transform="translate(15.896 16.817)" fill="#fff" fill-rule="evenodd"/>
    <path id="Path_19867" data-name="Path 19867" d="M57.057,53.951a.612.612,0,0,1,.189,1.069A.926.926,0,0,1,57.057,53.951Z" transform="translate(15.657 17.01)" fill="#fff" fill-rule="evenodd"/>
    <path id="Path_19868" data-name="Path 19868" d="M70.744,50.24c.108.323-.162.434-.4.564C70.238,50.484,70.508,50.371,70.744,50.24Z" transform="translate(24.439 14.57)" fill="#fff" fill-rule="evenodd"/>
    <path id="Path_19869" data-name="Path 19869" d="M58.406,54.852c.35.2.28.908.353,1.247A64.2,64.2,0,0,1,52.5,61.685c-.159-.527-.015-.88-.177-1.407C54.461,58.53,56.5,56.728,58.406,54.852Z" transform="translate(12.603 17.603)" fill="#fff" fill-rule="evenodd"/>
    <path id="Path_19870" data-name="Path 19870" d="M72.061,50.76c.317.181-.128.681.086,1.1-1.172,1-2.337,2.476-3.589,3.146-.225-.507.454-.837.7-1.094A25.449,25.449,0,0,0,72.061,50.76Z" transform="translate(23.253 14.912)" fill="#fff" fill-rule="evenodd"/>
    <path id="Path_19871" data-name="Path 19871" d="M61.894,54.253a9.832,9.832,0,0,1-1.709,3.063c-.6.976-.864,2.238-1.84,2.989A14.818,14.818,0,0,1,61.894,54.253Z" transform="translate(16.566 17.209)" fill="#fff" fill-rule="evenodd"/>
    <path id="Path_19872" data-name="Path 19872" d="M58.543,56.094c.328.247.34,1.061.544,1.528-.012.2-.494.131-.461.355-.05.456.461-.091.506.194.428,1.664.52,3.144.908,4.786.157.378-.086.535-.24.741.827.613.6,2.261.973,3.423q-2.959,2.934-6.233,5.692c-.317-3.522-1.656-7.62-2.052-11.187A73.487,73.487,0,0,0,58.543,56.094Z" transform="translate(12.714 18.419)" fill="#fff" fill-rule="evenodd"/>
    <path id="Path_19873" data-name="Path 19873" d="M69.084,53.5a6.384,6.384,0,0,1-1.752,1.731C67.373,54.423,68.443,53.415,69.084,53.5Z" transform="translate(22.476 16.711)" fill="#fff" fill-rule="evenodd"/>
    <path id="Path_19874" data-name="Path 19874" d="M61.458,55.781c.124-.018.139.166.189.282-.288.928-.668,1.89-.981,2.858-.28.869-.346,2.1-1.412,2.531A26.02,26.02,0,0,1,61.458,55.781Z" transform="translate(17.163 18.213)" fill="#fff" fill-rule="evenodd"/>
    <path id="Path_19875" data-name="Path 19875" d="M51.279,59.285a1.039,1.039,0,0,1,.234.83c-.277-.076-.39-.448-.695-.476C50.77,59.406,51.017,59.341,51.279,59.285Z" transform="translate(11.612 20.518)" fill="#fff" fill-rule="evenodd"/>
    <path id="Path_19876" data-name="Path 19876" d="M69.08,55.1a14.254,14.254,0,0,1-3.042,3.1c-1.092.956-2.175,1.989-3.34,2.853-.1-.789.753-1.157,1.235-1.581,1.5-1.333,3.539-2.864,4.936-4.316Z" transform="translate(19.423 17.769)" fill="#fff" fill-rule="evenodd"/>
    <path id="Path_19877" data-name="Path 19877" d="M50.836,59.7a7.739,7.739,0,0,1,.547.743c-.159.481-.983.076-.918.708C50.134,60.753,50.11,59.786,50.836,59.7Z" transform="translate(11.238 20.787)" fill="#fff" fill-rule="evenodd"/>
    <path id="Path_19878" data-name="Path 19878" d="M50.471,60.283c.045.61.02,1.177-.477,1.482-.34.083-.355-.408-.816-.106C49.253,61,49.916,60.674,50.471,60.283Z" transform="translate(10.537 21.174)" fill="#fff" fill-rule="evenodd"/>
    <path id="Path_19879" data-name="Path 19879" d="M49.145,61.22c.441.292.012,1.565-.731,1.777a2.014,2.014,0,0,0-.131-.86C48.494,61.79,48.943,61.573,49.145,61.22Z" transform="translate(9.949 21.79)" fill="#fff" fill-rule="evenodd"/>
    <path id="Path_19880" data-name="Path 19880" d="M48.366,62.005c.648.462-.288,1.515-.8,1.908-.375-.128-.02-.583-.264-.933C47.632,62.645,48.036,62.345,48.366,62.005Z" transform="translate(9.302 22.307)" fill="#fff" fill-rule="evenodd"/>
    <path id="Path_19881" data-name="Path 19881" d="M51.8,62.771c.114,1.55-2.166,3.015-3.324,4.083a25.234,25.234,0,0,0-3.014,3.209c-.544.051-.348.451-.8.34-.527,1.276-2.017,2.017-2.8,3.149-.547-.065-1.21.08-1.779.058C44.273,70.161,48.034,66.466,51.8,62.771Z" transform="translate(4.55 22.81)" fill="#fff" fill-rule="evenodd"/>
    <path id="Path_19882" data-name="Path 19882" d="M61.469,59.407a.324.324,0,0,1,.457.431C61.7,59.823,61.572,59.637,61.469,59.407Z" transform="translate(18.62 20.562)" fill="#fff" fill-rule="evenodd"/>
    <path id="Path_19883" data-name="Path 19883" d="M61.076,59.786c.32-.106.431.164.56.4-.181.1-.194.3-.457.353C61.013,60.166,60.894,60.1,61.076,59.786Z" transform="translate(18.302 20.832)" fill="#fff" fill-rule="evenodd"/>
    <path id="Path_19884" data-name="Path 19884" d="M58.267,60.973c.269-.063.3.288.383.564C58.305,61.742,58.391,61.169,58.267,60.973Z" transform="translate(16.514 21.623)" fill="#fff" fill-rule="evenodd"/>
    <path id="Path_19885" data-name="Path 19885" d="M61.86,60.311a.331.331,0,0,1,.265.151c-.189.839-1.1,1.261-1.724,1.835-.608.557-1.2,1.175-1.75,1.729-.071-.4.5-.864.877-1.258a9.693,9.693,0,0,1,1.6-1.464A8.646,8.646,0,0,1,61.86,60.311Z" transform="translate(16.763 21.193)" fill="#fff" fill-rule="evenodd"/>
    <path id="Path_19886" data-name="Path 19886" d="M46.383,66.031c.245,1.134.162,2.823-1.043,3.436A3.034,3.034,0,0,1,46.383,66.031Z" transform="translate(7.909 24.954)" fill="#fff" fill-rule="evenodd"/>
    <path id="Path_19887" data-name="Path 19887" d="M48.576,65.954c.24,1.033-.6,2.53-1.28,3.39C45.859,68.465,47.52,66.577,48.576,65.954Z" transform="translate(8.932 24.903)" fill="#fff" fill-rule="evenodd"/>
    <path id="Path_19888" data-name="Path 19888" d="M60.081,63.391a51.026,51.026,0,0,1-6.248,6.029c-.076-.8.835-1.165,1.338-1.61,1.49-1.323,3.212-2.906,4.7-4.361C59.945,63.427,60.013,63.408,60.081,63.391Z" transform="translate(13.596 23.218)" fill="#fff" fill-rule="evenodd"/>
    <path id="Path_19889" data-name="Path 19889" d="M43.024,68.146c.408-.035.285.522-.06.575C42.873,68.467,43.035,68.353,43.024,68.146Z" transform="translate(6.433 26.344)" fill="#fff" fill-rule="evenodd"/>
    <path id="Path_19890" data-name="Path 19890" d="M47.829,70.507c-1.106.424-2.767.144-4.383.346a19.968,19.968,0,0,0-4.94,1.177,86.411,86.411,0,0,1,14.564.353A16.9,16.9,0,0,1,61.7,76.326a23.158,23.158,0,0,1,8.749,12.653c-4.548,1.276-11,3.08-16.44,4.885-3.166,1.053-6.36,1.661-8.847,3.186.951-.184,3.262-.782,3.612.094-2.46.378-4.522,1.727-6.652,1.439-3.1-7.337-4.744-17.511-7.628-26.087a43.524,43.524,0,0,1,11.6-2.17C46.6,70.289,47.5,69.872,47.829,70.507ZM36.7,73.553c-.133.031-.179-.093-.34-.017.04.138-.154.148-.149.267.986,6.153,4.85,15.126,6.064,21.371.227,1.165-.144,2.084,1.48,2.047C42.051,90.05,39.4,80,36.7,73.553Zm2.362,4.374c.61,1.137,3.269,1.832,4.665,1.031a4.37,4.37,0,0,0,1.193-2.916c-.051-2.418-2.5-3.062-4.161-2.409C38.951,74.346,37.925,75.8,39.059,77.928ZM44.143,93.86c1.527,2.6,6.945.565,5.293-3.07-.628-1.386-2.957-2.079-4.59-1.164C43.615,90.315,43.286,92.405,44.143,93.86ZM62.3,88.71c.736,1.434,2.607,1.641,3.909,1.135,3.466-1.356.9-7.607-2.893-5.459A3.284,3.284,0,0,0,62.3,88.71Z" transform="translate(0.88 27.668)" fill="#fff" fill-rule="evenodd"/>
    <path id="Path_19891" data-name="Path 19891" d="M52.9,66.715c.385.136.008.579-.265.635C52.637,67.088,52.9,66.975,52.9,66.715Z" transform="translate(12.811 25.404)" fill="#fff" fill-rule="evenodd"/>
    <path id="Path_19892" data-name="Path 19892" d="M64.121,81.386a11.888,11.888,0,0,1-1.716-.52A27.335,27.335,0,0,0,56,74.5a14.869,14.869,0,0,0-3.832-2.052c-.758-.217-1.58-.207-2.372-.448a39.217,39.217,0,0,0-6.9-1.406c-.053-.116-.032-.192.045-.237-.05-.118-.03-.192.043-.239,1.266.439,2.586.128,3.988.215a24.175,24.175,0,0,1,5.463,1.477,21.864,21.864,0,0,1,5.091,2.143,14.384,14.384,0,0,1,1.6,1.677C60.927,77.42,62.939,78.457,64.121,81.386Z" transform="translate(6.389 27.642)" fill="#fff" fill-rule="evenodd"/>
    <path id="Path_19893" data-name="Path 19893" d="M55.057,67.879a13.154,13.154,0,0,1-3.144,3.133c-.267.612-1.16,1.6-1.842,1.421,1.7-1.558,3.072-3.292,4.664-4.91C55.016,67.33,54.982,67.7,55.057,67.879Z" transform="translate(11.125 25.899)" fill="#fff" fill-rule="evenodd"/>
    <path id="Path_19894" data-name="Path 19894" d="M41.361,74.837a2.729,2.729,0,0,1-.806,1.122,5.59,5.59,0,0,1-2.486-.862C37.19,72.5,41.13,71.918,41.361,74.837Zm-.741-1.024c-.328-.512-1.213-.448-1.779.056C38.211,76.326,41.681,75.487,40.62,73.813Z" transform="translate(3.148 29.463)" fill="#fff" fill-rule="evenodd"/>
    <path id="Path_19895" data-name="Path 19895" d="M54.705,73.891c.968-.176,2.132-.695,2.888-.482-.517.292-1.613.706-1.971,1.341C55.177,74.71,54.982,74.228,54.705,73.891Z" transform="translate(14.172 29.773)" fill="#fff" fill-rule="evenodd"/>
    <path id="Path_19896" data-name="Path 19896" d="M57.187,73.944c-.043-.085.013-.108.075-.133,1.576-.469,3.481-1.008,5.009-1.309,1.208-.237,2.533-.907,3.542-.557-2.122,1.119-5.415,1.616-8.036,2.5A2.075,2.075,0,0,0,57.187,73.944Z" transform="translate(15.794 28.778)" fill="#fff" fill-rule="evenodd"/>
    <path id="Path_19897" data-name="Path 19897" d="M63.538,72.209c1.712-.4,4.086-1.266,6.019-1.706.507-.116,1.3-.423,1.673-.028-1.687,1.122-4.918,1.152-7.366,2.09C63.8,72.36,63.541,72.514,63.538,72.209Z" transform="translate(19.981 27.748)" fill="#fff" fill-rule="evenodd"/>
    <path id="Path_19898" data-name="Path 19898" d="M69,70.886l8.2-2.326c.06.517.5.353.575.845-2.752.6-5.71,1.576-8.391,2.042C69.326,71.136,69.061,71.2,69,70.886Z" transform="translate(23.573 26.617)" fill="#fff" fill-rule="evenodd"/>
    <path id="Path_19899" data-name="Path 19899" d="M74.947,68.955c2.6-.323,6.571-2.468,8.223-1.437a3.4,3.4,0,0,1-.993.844c.01-.345.562-.385.315-.875-.6-.1-.971.6-1.439.857-.406.2-.336-.441-.741-.237-1.358.893-2.649.928-4.582,1.636C75.482,69.461,75.126,69.367,74.947,68.955Z" transform="translate(27.483 25.749)" fill="#fff" fill-rule="evenodd"/>
    <path id="Path_19900" data-name="Path 19900" d="M88.889,65.61c-1.177.867-4.946,1.379-6.967,2.312a33.933,33.933,0,0,0,7.411-1.54A30.528,30.528,0,0,0,93,69.823c1.25,1.063,2.826,1.931,3.814,3.179.4.506.481,1.144,1.243,1.217-.06.395-.675-.063-.564.385.5.144,1.21-.081,1.48.476-1.929.769-3.773,1.129-5.646,1.827-.438.1-.333-.759-.754-.683-.254.177-.091.59-.076.918-.416.119-.83.235-1.245.355-.058-.26-.126-.507-.282-.6-3.484-2.987-6.826-6.228-10.337-9.175a10.646,10.646,0,0,1,3.6-1.134C85.857,66.213,87.564,65.318,88.889,65.61Z" transform="translate(31.223 24.639)" fill="#fff" fill-rule="evenodd"/>
    <path id="Path_19901" data-name="Path 19901" d="M86.354,66.087c-.045-.081.012-.109.075-.134,1.527-.492,3.509-.963,5.112-1.336.736-.174,1.865-.94,2.329-.1-1.863.411-3.7.789-5.664,1.382-.371.25-.337-.23-.607-.162C87.312,66.11,86.794,66.474,86.354,66.087Z" transform="translate(34.974 23.704)" fill="#fff" fill-rule="evenodd"/>
    <path id="Path_19902" data-name="Path 19902" d="M91.981,64.364c1.313-.184,3.116-.845,4.7-1.22a5.311,5.311,0,0,1,2.714-.322c-2.029.61-4.96,1.482-7.191,1.928C92.162,64.559,92.012,64.566,91.981,64.364Z" transform="translate(38.685 22.779)" fill="#fff" fill-rule="evenodd"/>
    <path id="Path_19903" data-name="Path 19903" d="M97.461,62.345c.327-.114.494.06.86-.131A.437.437,0,1,1,97.461,62.345Z" transform="translate(42.288 22.444)" fill="#fff" fill-rule="evenodd"/>
    <path id="Path_19904" data-name="Path 19904" d="M58.037,74.649q4-1.136,7.99-2.268c2.722,2.533,5.512,4.938,8.194,7.54-2.046.622-4.534,1.311-6.062,1.943.579.434,1.5.1,2.326-.1,1.374-.322,3-.9,4.356-1.235.449.134.719.585,1.124.8a52.282,52.282,0,0,1-5.157,1.576c-.305.184-.368-.07-.506-.194-.383.048-.148.441-.532.489-.283.192-.25-.179-.323-.358-.625.235-.625.821-1.543.887-2.675-2.407-5.5-4.547-7.852-7.526A9.193,9.193,0,0,1,58.037,74.649Z" transform="translate(16.363 29.13)" fill="#fff" fill-rule="evenodd"/>
    <path id="Path_19905" data-name="Path 19905" d="M64.17,72.08c.212-.06.418-.118.625-.179a.54.54,0,0,1-.4.564A.606.606,0,0,1,64.17,72.08Z" transform="translate(20.396 28.814)" fill="#fff" fill-rule="evenodd"/>
    <path id="Path_19906" data-name="Path 19906" d="M69.716,71.429c2.586-.565,5.326-1.407,8.018-2.162,2.667,2.626,5.836,5.185,8.4,7.479-2.7.661-5.367,1.271-8.154,2.09-.84-.767-1.876-1.462-2.767-2.244a9.186,9.186,0,0,1-2.3-2.6A8.834,8.834,0,0,1,69.716,71.429Z" transform="translate(24.043 27.082)" fill="#fff" fill-rule="evenodd"/>
    <path id="Path_19907" data-name="Path 19907" d="M79.662,68.129c-.053.965-.893,2.309-2.107,2.055C77.77,69.313,78.54,67.925,79.662,68.129Z" transform="translate(29.198 26.32)" fill="#fff" fill-rule="evenodd"/>
    <path id="Path_19908" data-name="Path 19908" d="M75.741,68.973A.925.925,0,0,1,76.4,68.9c0,.148-.138.215-.119.371A.408.408,0,0,1,75.741,68.973Z" transform="translate(28.005 26.816)" fill="#fff" fill-rule="evenodd"/>
    <path id="Path_19909" data-name="Path 19909" d="M92.569,65.168c2.006-.829,4.59-1.338,6.819-2.045,2.914,2.5,5.691,5.245,8.591,7.766-1.92.622-4.6,1.247-6.848,1.941-.471-.608-1.682-.978-1.21-1.9-.4.02-.436.375-.726.207-.933-1.308-2.443-1.568-3.166-3.252C94.673,67.35,93.708,66.1,92.569,65.168Z" transform="translate(39.072 23.042)" fill="#fff" fill-rule="evenodd"/>
    <path id="Path_19910" data-name="Path 19910" d="M103.245,61.776c-.356.865-.978,2.735-2.157,2.292C101.305,63.109,102.2,61.7,103.245,61.776Z" transform="translate(44.674 22.154)" fill="#fff" fill-rule="evenodd"/>
    <path id="Path_19911" data-name="Path 19911" d="M80.279,69.232c-.055.821-.529,1.845-1.485,1.876A1.8,1.8,0,0,1,80.279,69.232Z" transform="translate(30 27.059)" fill="#fff" fill-rule="evenodd"/>
    <path id="Path_19912" data-name="Path 19912" d="M103.766,62.886c.487.816-.206,2.5-1.29,2.16C102.281,63.977,103.05,63.445,103.766,62.886Z" transform="translate(45.566 22.886)" fill="#fff" fill-rule="evenodd"/>
    <path id="Path_19913" data-name="Path 19913" d="M54.867,76.88a2.74,2.74,0,0,1,2.385,1.677A2.351,2.351,0,0,1,54.867,76.88Z" transform="translate(14.279 32.088)" fill="#fff" fill-rule="evenodd"/>
    <path id="Path_19914" data-name="Path 19914" d="M80.51,69.778c.262-.156.267.148.474.09a1.242,1.242,0,0,1-.119,1.154c-.262.157-.269-.144-.476-.09A1.712,1.712,0,0,1,80.51,69.778Z" transform="translate(31.027 27.388)" fill="#fff" fill-rule="evenodd"/>
    <path id="Path_19915" data-name="Path 19915" d="M55.553,78.1c.771.448,1.954.149,2.148,1.634a2.7,2.7,0,0,0-1.528-.242C56.007,78.964,55.724,78.64,55.553,78.1Z" transform="translate(14.73 32.894)" fill="#fff" fill-rule="evenodd"/>
    <path id="Path_19916" data-name="Path 19916" d="M42.2,82.923c1-.753,1.624.53,1.832,1.722-.59.937-2.085.456-2.843.245-.111-.35-.239-.716-.028-.89.517-.2.52.53,1.006.388A.737.737,0,1,0,42.2,82.923Z" transform="translate(5.194 35.915)" fill="#fff" fill-rule="evenodd"/>
    <path id="Path_19917" data-name="Path 19917" d="M56.159,79.287a7.219,7.219,0,0,0,1.377.5c.088.312.177.622.264.933A1.675,1.675,0,0,1,56.159,79.287Z" transform="translate(15.128 33.671)" fill="#fff" fill-rule="evenodd"/>
    <path id="Path_19918" data-name="Path 19918" d="M61.486,78.519c.366.492.471,1.454.8,2.014A2.9,2.9,0,0,1,61.486,78.519Z" transform="translate(18.631 33.166)" fill="#fff" fill-rule="evenodd"/>
    <path id="Path_19919" data-name="Path 19919" d="M60.533,79.106a.61.61,0,0,1-.31.874C59.994,79.5,60.153,79.245,60.533,79.106Z" transform="translate(17.731 33.552)" fill="#fff" fill-rule="evenodd"/>
    <path id="Path_19920" data-name="Path 19920" d="M56.73,80.341a9.071,9.071,0,0,0,.874.315c.106.38.215.759.322,1.14C57.284,81.748,56.869,81.292,56.73,80.341Z" transform="translate(15.504 34.364)" fill="#fff" fill-rule="evenodd"/>
    <path id="Path_19921" data-name="Path 19921" d="M60.833,79.319c.426-.139.315.691.5.978C60.908,80.433,61.022,79.6,60.833,79.319Z" transform="translate(18.202 33.682)" fill="#fff" fill-rule="evenodd"/>
    <path id="Path_19922" data-name="Path 19922" d="M58.535,80.041c.391-.174.605.782.577.845C58.6,81.182,58.717,80.34,58.535,80.041Z" transform="translate(16.691 34.153)" fill="#fff" fill-rule="evenodd"/>
    <path id="Path_19923" data-name="Path 19923" d="M70.682,76.664a8.259,8.259,0,0,1,1.068-.191c.083.421.346.522.4,1.008a2,2,0,0,1-1.348.381A3.246,3.246,0,0,1,70.682,76.664Z" transform="translate(24.672 31.821)" fill="#fff" fill-rule="evenodd"/>
    <path id="Path_19924" data-name="Path 19924" d="M84.254,74.806c-2.491.97-5.558,1.615-8.271,2.458-.265-.26-.879-.716-.84-.995,2.45-.837,5.581-1.563,8.223-2.22A9.044,9.044,0,0,0,84.254,74.806Z" transform="translate(27.61 30.227)" fill="#fff" fill-rule="evenodd"/>
    <path id="Path_19925" data-name="Path 19925" d="M59.78,79.757c.225.076.481.9.03.892A.949.949,0,0,1,59.78,79.757Z" transform="translate(17.446 33.98)" fill="#fff" fill-rule="evenodd"/>
    <path id="Path_19926" data-name="Path 19926" d="M70.069,76.885c.174-.048.346-.1.519-.146.05.484.315.583.4,1.009l-.622.174C70.268,77.576,70.168,77.233,70.069,76.885Z" transform="translate(24.275 31.996)" fill="#fff" fill-rule="evenodd"/>
    <path id="Path_19927" data-name="Path 19927" d="M71.634,76.443c.172-.048.346-.1.52-.148.031.368.406.923.219,1.17C71.848,77.623,71.919,76.716,71.634,76.443Z" transform="translate(25.305 31.704)" fill="#fff" fill-rule="evenodd"/>
    <path id="Path_19928" data-name="Path 19928" d="M72.385,76.218c.138-.038.277-.08.416-.118-.008.375.55,1.063.116,1.2C72.478,77.411,72.587,76.533,72.385,76.218Z" transform="translate(25.798 31.575)" fill="#fff" fill-rule="evenodd"/>
    <path id="Path_19929" data-name="Path 19929" d="M73.073,75.98c.4-.116.477.912.431,1.111C73.214,76.979,73.24,76.309,73.073,75.98Z" transform="translate(26.251 31.49)" fill="#fff" fill-rule="evenodd"/>
    <path id="Path_19930" data-name="Path 19930" d="M73.574,75.869c.1-.03.211-.058.315-.09l.323,1.144C73.693,77.118,73.766,76.255,73.574,75.869Z" transform="translate(26.58 31.364)" fill="#fff" fill-rule="evenodd"/>
    <path id="Path_19931" data-name="Path 19931" d="M85.739,72.459a1.328,1.328,0,0,1,.633,1.054,1.47,1.47,0,0,1-1.14.323c-.06-.209-.118-.416-.176-.622C85.326,72.986,85.663,72.794,85.739,72.459Z" transform="translate(34.131 29.181)" fill="#fff" fill-rule="evenodd"/>
    <path id="Path_19932" data-name="Path 19932" d="M69.648,77.018c.356-.065.336.55.476.872A1.589,1.589,0,0,1,69.648,77.018Z" transform="translate(23.999 32.176)" fill="#fff" fill-rule="evenodd"/>
    <path id="Path_19933" data-name="Path 19933" d="M74.191,75.861c.3.1.449.451.724.58.085.219-.353.151-.487.25Q74.309,76.276,74.191,75.861Z" transform="translate(26.986 31.418)" fill="#fff" fill-rule="evenodd"/>
    <path id="Path_19934" data-name="Path 19934" d="M81.963,73.677q.117.415.235.83l-.209.06C82,74.282,81.537,73.73,81.963,73.677Z" transform="translate(31.978 29.982)" fill="#fff" fill-rule="evenodd"/>
    <path id="Path_19935" data-name="Path 19935" d="M60.6,79.811c.151,0,.161.237.22.39l-.413.116C60.216,80.01,60.614,80.025,60.6,79.811Z" transform="translate(17.887 34.016)" fill="#fff" fill-rule="evenodd"/>
    <path id="Path_19936" data-name="Path 19936" d="M82.283,73.69c.174-.046.346-.1.519-.146.068.242.138.486.206.728C82.5,74.557,82.369,74.161,82.283,73.69Z" transform="translate(32.307 29.895)" fill="#fff" fill-rule="evenodd"/>
    <path id="Path_19937" data-name="Path 19937" d="M82.973,73.545l.623-.176c.038.141.076.278.116.418.332-.1.088-.532.637-.517.166.3-.093.353.076.651-.313.09-.623.177-.938.265C83.424,73.776,82.947,74.111,82.973,73.545Z" transform="translate(32.761 29.714)" fill="#fff" fill-rule="evenodd"/>
    <path id="Path_19938" data-name="Path 19938" d="M84.368,73.179,84.99,73c.056.207.118.414.176.623l-.62.176C84.486,73.593,84.426,73.386,84.368,73.179Z" transform="translate(33.678 29.539)" fill="#fff" fill-rule="evenodd"/>
    <path id="Path_19939" data-name="Path 19939" d="M92.628,70.795c.423-.275.7.317.224.385C92.812,70.99,92.661,71,92.628,70.795Z" transform="translate(39.11 28.039)" fill="#fff" fill-rule="evenodd"/>
    <path id="Path_19940" data-name="Path 19940" d="M95.93,70.012c.151-.008.162.235.224.386l-1.243.353C94.823,69.745,95.911,70.917,95.93,70.012Z" transform="translate(40.608 27.572)" fill="#fff" fill-rule="evenodd"/>
    <path id="Path_19941" data-name="Path 19941" d="M98.018,69.9c-.641.108-1.48.567-2,.453C96.392,70.2,97.585,69.194,98.018,69.9Z" transform="translate(41.339 27.334)" fill="#fff" fill-rule="evenodd"/>
    <path id="Path_19942" data-name="Path 19942" d="M105.65,68.61A64.65,64.65,0,0,1,98.2,70.39c-.02-.07-.038-.138-.06-.207-.051-.116-.03-.192.043-.237,1.525-.376,3.5-1.066,5.086-1.444C104.146,68.295,105.106,67.968,105.65,68.61Z" transform="translate(42.716 26.402)" fill="#fff" fill-rule="evenodd"/>
    <path id="Path_19943" data-name="Path 19943" d="M104.743,67.464c.219.136.3.512.446.771C104.8,68.412,104.905,67.7,104.743,67.464Z" transform="translate(47.077 25.896)" fill="#fff" fill-rule="evenodd"/>
    <path id="Path_19944" data-name="Path 19944" d="M104.444,67.839c.151-.01.159.234.219.385l-.31.088C104.141,68.02,104.446,68.013,104.444,67.839Z" transform="translate(46.771 26.143)" fill="#fff" fill-rule="evenodd"/>
    <path id="Path_19945" data-name="Path 19945" d="M56.969,81.423a2.124,2.124,0,0,1,1.137,1.248,3.849,3.849,0,0,1-1.064-.6C56.876,81.781,57.135,81.718,56.969,81.423Z" transform="translate(15.661 35.076)" fill="#fff" fill-rule="evenodd"/>
    <path id="Path_19946" data-name="Path 19946" d="M55.314,82.571c1.041-.516,1.354.282,2.027.433A1.323,1.323,0,0,1,55.314,82.571Z" transform="translate(14.572 35.718)" fill="#fff" fill-rule="evenodd"/>
    <path id="Path_19947" data-name="Path 19947" d="M43.08,86.275a2.011,2.011,0,0,1,2.195-.174A2.14,2.14,0,0,1,43.08,86.275Z" transform="translate(6.527 37.988)" fill="#fff" fill-rule="evenodd"/>
    <path id="Path_19948" data-name="Path 19948" d="M44.4,85.875c.6-.506,1.663-.479,1.941.123A2.4,2.4,0,0,1,44.4,85.875Z" transform="translate(7.392 37.77)" fill="#fff" fill-rule="evenodd"/>
    <path id="Path_19949" data-name="Path 19949" d="M45.566,85.412a1.516,1.516,0,0,1,1.866.255A1.515,1.515,0,0,1,45.566,85.412Z" transform="translate(8.162 37.569)" fill="#fff" fill-rule="evenodd"/>
    <path id="Path_19950" data-name="Path 19950" d="M46.586,85.231c.658-.655,1.364-.045,1.91.02C47.833,85.914,47.1,85.354,46.586,85.231Z" transform="translate(8.833 37.383)" fill="#fff" fill-rule="evenodd"/>
    <path id="Path_19951" data-name="Path 19951" d="M47.649,84.927c.6-.6,1.353-.124,1.808.05C48.842,85.607,48.133,85.055,47.649,84.927Z" transform="translate(9.532 37.186)" fill="#fff" fill-rule="evenodd"/>
    <path id="Path_19952" data-name="Path 19952" d="M48.777,84.609c.683-.645,1.434-.065,1.938.123C50.01,85.419,49.331,84.711,48.777,84.609Z" transform="translate(10.274 36.976)" fill="#fff" fill-rule="evenodd"/>
    <path id="Path_19953" data-name="Path 19953" d="M49.84,84.3c.706-.686,1.366.055,1.943.121C51.06,85.14,50.42,84.364,49.84,84.3Z" transform="translate(10.973 36.781)" fill="#fff" fill-rule="evenodd"/>
    <path id="Path_19954" data-name="Path 19954" d="M50.842,84.051c.043-.267.641-.224.907-.368a1.526,1.526,0,0,0,.827.55C51.924,84.926,51.422,84,50.842,84.051Z" transform="translate(11.632 36.562)" fill="#fff" fill-rule="evenodd"/>
    <path id="Path_19955" data-name="Path 19955" d="M51.843,84.036a21.727,21.727,0,0,1,3.292-1.046,1.357,1.357,0,0,0,.622.608C54.543,84.212,52.614,84.747,51.843,84.036Z" transform="translate(12.29 36.106)" fill="#fff" fill-rule="evenodd"/>
    <path id="Path_19956" data-name="Path 19956" d="M54.222,83.074c.676-.685,1.4-.1,1.837.153C55.386,83.911,54.661,83.332,54.222,83.074Z" transform="translate(13.854 35.95)" fill="#fff" fill-rule="evenodd"/>
    <path id="Path_19957" data-name="Path 19957" d="M56.494,82.468c.663-.661,1.232.184,1.76.285-.29.361-1.051.3-1.243.355C56.948,82.7,56.781,82.473,56.494,82.468Z" transform="translate(15.348 35.599)" fill="#fff" fill-rule="evenodd"/>
    <path id="Path_19958" data-name="Path 19958" d="M97.258,75.894c-9.1,2.969-19.157,5.78-28.532,8.1-3.246.8-6.276,2.118-9.423,2.334-.022-.068-.04-.139-.06-.206-.055-.116-.033-.191.043-.239,10.635-2.8,22.278-6.093,33.571-9.3C94.363,76.155,96.076,75.412,97.258,75.894Z" transform="translate(17.136 31.337)" fill="#fff" fill-rule="evenodd"/>
    <path id="Path_19959" data-name="Path 19959" d="M116.212,69.849c.07.623-.6.457-.816.68-.194.2.2.5-.267.637-4.933.963-10.033,2.346-15.147,3.512s-10.121,2.778-14.97,3.347c-.114.053-.189.032-.234-.043-.053-.116-.032-.191.045-.239C94.983,75.236,105.567,72.178,116.212,69.849Z" transform="translate(33.929 27.465)" fill="#fff" fill-rule="evenodd"/>
    <path id="Path_19960" data-name="Path 19960" d="M48.941,87.059c-.879.658-3.947,2.22-5.47,1.663.2-.708,2.909-1.643,4.182-1.858C48.126,86.784,48.717,86.706,48.941,87.059Z" transform="translate(6.784 38.609)" fill="#fff" fill-rule="evenodd"/>
    <path id="Path_19961" data-name="Path 19961" d="M50.338,86.012c.182.7-1.159.849-1.2.119C49.386,85.838,50.16,85.69,50.338,86.012Z" transform="translate(10.513 37.974)" fill="#fff" fill-rule="evenodd"/>
    <path id="Path_19962" data-name="Path 19962" d="M57.561,84.146c.287.487-.322,1.16-.656,1.646-.373.54-.864,1.077-1.23,1.581-.776,1.059-1.334,2.735-2.762,2.914-.091-.645.524-1.218.86-1.7a24.83,24.83,0,0,1,3.683-4.408C57.491,84.166,57.526,84.158,57.561,84.146Z" transform="translate(12.987 36.867)" fill="#fff" fill-rule="evenodd"/>
    <path id="Path_19963" data-name="Path 19963" d="M103.8,70.594c.96-.343,1.293.983,1.018,1.618C104.209,72.184,103.777,71.269,103.8,70.594Z" transform="translate(46.457 27.918)" fill="#fff" fill-rule="evenodd"/>
    <path id="Path_19964" data-name="Path 19964" d="M54.613,84.974c0,.852-.721,1.525-1.157,2.234-.393.632-.615,1.82-1.619,1.8A5,5,0,0,1,54.613,84.974Z" transform="translate(12.286 37.411)" fill="#fff" fill-rule="evenodd"/>
    <path id="Path_19965" data-name="Path 19965" d="M58.1,84.211c.131,1.039-.774,2.026-1.4,2.975-.6.92-1.175,2.2-2.2,2.528a5.37,5.37,0,0,1,1.129-2.339c.711-1.079,1.381-2.012,2.155-3.077C57.9,84.271,58,84.241,58.1,84.211Z" transform="translate(14.043 36.909)" fill="#fff" fill-rule="evenodd"/>
    <path id="Path_19966" data-name="Path 19966" d="M41.48,88.82c.086-.046.111.012.134.073,3.494,9.9,6.375,20.783,9.334,31.317,1.857,6.617,4.389,13.311,5.458,19.639a7.088,7.088,0,0,1-1.283-2.549c-1.139-2.82-1.9-5.943-2.9-9.042-2.576-7.935-4.945-16.632-7.332-25.048-1.215-4.29-2.591-8.512-3.43-12.48a3.812,3.812,0,0,1-.1-1.542A.3.3,0,0,1,41.48,88.82Z" transform="translate(5.364 39.929)" fill="#fff" fill-rule="evenodd"/>
    <path id="Path_19967" data-name="Path 19967" d="M58.967,84.27c.164-.088.217.025.265.149-.381.375-.4,1.008-.686,1.538-.627,1.18-1.5,2.763-2.758,2.914A29.878,29.878,0,0,1,58.967,84.27Z" transform="translate(14.884 36.928)" fill="#fff" fill-rule="evenodd"/>
    <path id="Path_19968" data-name="Path 19968" d="M66.591,82.244c-.724,1.039-1.167,3.113-2.7,3.121C64.426,84.175,65.207,82.668,66.591,82.244Z" transform="translate(20.213 35.616)" fill="#fff" fill-rule="evenodd"/>
    <path id="Path_19969" data-name="Path 19969" d="M102.162,72.106a1.158,1.158,0,0,1-.046,1.023,10.582,10.582,0,0,0,1.406.61.725.725,0,0,1-.1.814C101.844,75.109,99.782,72.013,102.162,72.106Z" transform="translate(44.668 28.948)" fill="#fff" fill-rule="evenodd"/>
    <path id="Path_19970" data-name="Path 19970" d="M63.253,83.23c.245-.023.043.668,0,.784-.37.99-1.424,2.558-2.45,2.825C61.057,85.322,62.168,84.281,63.253,83.23Z" transform="translate(18.183 36.264)" fill="#fff" fill-rule="evenodd"/>
    <path id="Path_19971" data-name="Path 19971" d="M82.828,77.689c.124-.017.138.166.189.282A43.3,43.3,0,0,1,80.27,81.33C80.25,79.974,81.805,78.755,82.828,77.689Z" transform="translate(30.984 32.62)" fill="#fff" fill-rule="evenodd"/>
    <path id="Path_19972" data-name="Path 19972" d="M85.089,77.229a11.169,11.169,0,0,1-2.969,3.756A6.436,6.436,0,0,1,85.089,77.229Z" transform="translate(32.2 32.318)" fill="#fff" fill-rule="evenodd"/>
    <path id="Path_19973" data-name="Path 19973" d="M66.41,82.929c-1.4,4.081-4.789,7.051-6.272,11.084-.618-.452.04-1.3.287-1.764a36.106,36.106,0,0,1,3.3-4.97c-.1-.187-.348-.106-.353-.461A9.455,9.455,0,0,1,66.41,82.929Z" transform="translate(17.576 36.066)" fill="#fff" fill-rule="evenodd"/>
    <path id="Path_19974" data-name="Path 19974" d="M59.733,84.475c.36.574-.35,1.331-.7,1.878-.333.522-.726,1.475-1.528,1.333-.045-.516.489-1.185.864-1.7A6.923,6.923,0,0,1,59.733,84.475Z" transform="translate(16.012 37.083)" fill="#fff" fill-rule="evenodd"/>
    <path id="Path_19975" data-name="Path 19975" d="M66.9,82.469c.146,0,.214.138.368.119-.327.661-.671,1.686-1.648,1.7C65.581,83.417,66.549,83.115,66.9,82.469Z" transform="translate(21.352 35.764)" fill="#fff" fill-rule="evenodd"/>
    <path id="Path_19976" data-name="Path 19976" d="M99.114,73.645c-.832,1.253-1.222,3.214-2.866,3.73A4.768,4.768,0,0,1,99.114,73.645Z" transform="translate(41.491 29.961)" fill="#fff" fill-rule="evenodd"/>
    <path id="Path_19977" data-name="Path 19977" d="M96.665,74.23c-.333,1.1-.64,2.2-1.9,2.781C94.744,76.063,95.711,74.923,96.665,74.23Z" transform="translate(40.515 30.346)" fill="#fff" fill-rule="evenodd"/>
    <path id="Path_19978" data-name="Path 19978" d="M68.924,82.391a2.718,2.718,0,0,1-.862,1.7c-.169-.01-.307-.078-.476-.088l-.146-.52C68.007,83.2,68.335,82.379,68.924,82.391Z" transform="translate(22.547 35.712)" fill="#fff" fill-rule="evenodd"/>
    <path id="Path_19979" data-name="Path 19979" d="M85.318,77.945c-.1.887-.477,2.413-1.5,2.22C83.989,79.293,84.518,78.177,85.318,77.945Z" transform="translate(33.318 32.789)" fill="#fff" fill-rule="evenodd"/>
    <path id="Path_19980" data-name="Path 19980" d="M69.092,83.077c.139-.012.164.177.06.206A53.248,53.248,0,0,1,66.091,88.3c-1.014,1.658-1.779,3.524-3.193,4.941a6.694,6.694,0,0,1,1.276-2.606A41.783,41.783,0,0,1,69.092,83.077Z" transform="translate(19.56 36.163)" fill="#fff" fill-rule="evenodd"/>
    <path id="Path_19981" data-name="Path 19981" d="M89.632,77.018c.058.615-.37.96-.612,1.406a7.714,7.714,0,0,0,1.923.462c-.461,1.387-1.918-.119-2.576-.391C88.139,77.67,88.946,76.524,89.632,77.018Z" transform="translate(36.283 32.101)" fill="#fff" fill-rule="evenodd"/>
    <path id="Path_19982" data-name="Path 19982" d="M67.58,83.805c-1.994,3.37-4.474,6.47-6.257,9.957a3.447,3.447,0,0,1,.583-2.294c1.513-2.723,3.585-5.122,5.329-7.68C67.4,83.713,67.444,83.839,67.58,83.805Z" transform="translate(18.495 36.615)" fill="#fff" fill-rule="evenodd"/>
    <path id="Path_19983" data-name="Path 19983" d="M44.749,90.855c-.706-1.248.958-1.7,1.381-1.064C46.614,90.509,45.558,91.329,44.749,90.855Z" transform="translate(7.512 40.391)" fill="#fff" fill-rule="evenodd"/>
    <path id="Path_19984" data-name="Path 19984" d="M104.985,73.024c.154-.076.2.046.34.015a241.121,241.121,0,0,1,8.855,33.586c-3.448-10.411-6.553-22.162-9.213-33.26C104.891,73.2,105.015,73.16,104.985,73.024Z" transform="translate(47.208 29.536)" fill="#fff" fill-rule="evenodd"/>
    <path id="Path_19985" data-name="Path 19985" d="M98.832,75.05c.1.4-.2.583-.313.874C97.7,76.028,97.953,74.994,98.832,75.05Z" transform="translate(42.656 30.883)" fill="#fff" fill-rule="evenodd"/>
    <path id="Path_19986" data-name="Path 19986" d="M69.364,83.98c-.844,2.705-2.994,5.435-4.7,7.948C65.742,89.006,67.693,86.573,69.364,83.98Z" transform="translate(20.724 36.757)" fill="#fff" fill-rule="evenodd"/>
    <path id="Path_19987" data-name="Path 19987" d="M46.467,92.281c5.739-1.747,11.676-3.207,16.85-4.22a8.221,8.221,0,0,1,2.879-.144c.671,1.2.759,2.573-.953,2.962-1.482.335-4.822,1.449-7.189,1.926-1.147.232-2.692.229-3.779.512-2.274.592-4.7,1.5-6.509,1.958C46.719,95.052,45.7,93.252,46.467,92.281Z" transform="translate(8.579 39.298)" fill="#fff" fill-rule="evenodd"/>
    <path id="Path_19988" data-name="Path 19988" d="M85.392,80.393a2.315,2.315,0,0,1,.59,1.291c.413.111.721.27.681.816-.928.355-1.616.419-1.9,1.212-.95.138-1.386-.648-1.7-1.648a.545.545,0,0,0,.22-.4c.322-.156.5-.066.759-.1C84.312,81.084,84.451,80.221,85.392,80.393Z" transform="translate(32.822 34.384)" fill="#fff" fill-rule="evenodd"/>
    <path id="Path_19989" data-name="Path 19989" d="M104.23,77.389c-.25.676-1.266.927-2.105,1.27.671.1,1.547-.162,1.85.6-1.79-.156-4.853,2.405-6.475,1.276a11.548,11.548,0,0,0-3.943,1.119c-.292-.89.547-1.15.995-1.628-.247-.186-.685-.022-.875-.313a.6.6,0,0,1,.164-.607c2.664-.855,6.46-2.394,8.51-1.628A2.8,2.8,0,0,1,104.23,77.389Z" transform="translate(39.682 32.34)" fill="#fff" fill-rule="evenodd"/>
    <path id="Path_19990" data-name="Path 19990" d="M104.9,75.943c-.018.59-1.253.907-1.484,1.094C103.037,76.127,104.259,75.262,104.9,75.943Z" transform="translate(46.158 31.311)" fill="#fff" fill-rule="evenodd"/>
    <path id="Path_19991" data-name="Path 19991" d="M45.316,92.626a1.234,1.234,0,0,1,.293,1.038c-.174.048-.345.1-.517.148C44.767,93.43,44.72,92.75,45.316,92.626Z" transform="translate(7.695 42.443)" fill="#fff" fill-rule="evenodd"/>
    <path id="Path_19992" data-name="Path 19992" d="M103.564,76.919a2.006,2.006,0,0,1,.8-.338,1.1,1.1,0,0,1,.2,1.512c-.655.2-.713-.123-1.14.323-.368-.018-.507-.449-.829-.55-.35.1-.164.492-.239.739-.655.285-.953-.068-1.094-.7C101.842,77.539,102.851,75.856,103.564,76.919Z" transform="translate(44.792 31.886)" fill="#fff" fill-rule="evenodd"/>
    <path id="Path_19993" data-name="Path 19993" d="M51.832,96.045a34.278,34.278,0,0,1,5.75-1.855c.607-.119,1.85-.337,2,.33.085.368-.869,1.152-1.4,1.4C56.132,96.9,51.984,97.756,51.832,96.045Z" transform="translate(12.283 43.385)" fill="#fff" fill-rule="evenodd"/>
    <path id="Path_19994" data-name="Path 19994" d="M71.716,104.98c-3.837,1.75-11.92,2.738-16.243,4.381-.986.378-3.265,1.1-3.125-1.13.559-.285.935-1.039,1.606-1.464,1.243-.787,3.695-1.159,5.884-1.779,3.652-1.038,7.318-2.432,9.987-1.939.174.559,1.271.83.855,1.439C71,104.7,71.567,104.466,71.716,104.98Z" transform="translate(12.618 49.23)" fill="#fff" fill-rule="evenodd"/>
    <path id="Path_19995" data-name="Path 19995" d="M70.9,113.2c-2.515,3.781-4.943,7.605-7.146,11.557.172.472.731.91.62,1.394-1,.3-1.566-1.389-1.406-2.181a.542.542,0,0,1,.564.4C65.858,120.572,67.631,116.47,70.9,113.2Z" transform="translate(19.587 55.97)" fill="#fff" fill-rule="evenodd"/>
    <path id="Path_19996" data-name="Path 19996" d="M66.877,114.661c-2.118,3.214-3.781,6.682-6.078,9.8.172.852.612,1.855.1,2.326a6.485,6.485,0,0,1-.857-2.226c-.325-.144-.842.055-1.228.015.129.769.812,1.848.172,2.193a2.916,2.916,0,0,1-.943-2.534c.887-.07,1.969-.5,2.564-.056,2.075-3.12,3.791-6.445,5.928-9.528C66.694,114.568,66.743,114.693,66.877,114.661Z" transform="translate(16.331 56.907)" fill="#fff" fill-rule="evenodd"/>
    <path id="Path_19997" data-name="Path 19997" d="M72.026,113.016c.167-.091.222.025.27.148-2.365,3.688-4.728,7.375-6.927,11.156a9.8,9.8,0,0,1,.592,1.291c-.6.285-.784-.161-1.038-.492-.234-.2-.275.769-.772.444a3.606,3.606,0,0,0,.436-2.029c.356-.219.4.123.605.162C67.463,120.134,69.421,116.393,72.026,113.016Z" transform="translate(20.384 55.83)" fill="#fff" fill-rule="evenodd"/>
    <path id="Path_19998" data-name="Path 19998" d="M92.882,115.924c1.863-2.51,3.713-5.031,5.465-7.6.164-.088.217.025.267.146-.9,1.293-1.792,2.531-2.735,3.8C94.981,113.477,94.289,115.024,92.882,115.924Z" transform="translate(39.277 52.743)" fill="#fff" fill-rule="evenodd"/>
    <path id="Path_19999" data-name="Path 19999" d="M58.793,125.052c-2.98,1.983-7,.582-7.279-2.753l.31-.088C53.165,124.918,55.68,125.52,58.793,125.052Z" transform="translate(12.074 61.898)" fill="#fff" fill-rule="evenodd"/>
    <path id="Path_20000" data-name="Path 20000" d="M54.158,121.893a3.9,3.9,0,0,0,3.375,1.619c.84.041,2.032-.608,2.546.287-2.412,1.379-5.493.932-6.886-.96C53.151,122.319,53.7,122.132,54.158,121.893Z" transform="translate(13.176 61.689)" fill="#fff" fill-rule="evenodd"/>
    <path id="Path_20001" data-name="Path 20001" d="M67.052,120.245c-.824.4-1.295-.56-1.242-1.217C66.545,118.859,66.689,119.744,67.052,120.245Z" transform="translate(21.472 59.791)" fill="#fff" fill-rule="evenodd"/>
    <path id="Path_20002" data-name="Path 20002" d="M84.019,115.172c-1.7,1.53-1.2-1.987,0,0Z" transform="translate(32.728 56.858)" fill="#fff" fill-rule="evenodd"/>
    <path id="Path_20003" data-name="Path 20003" d="M85.967,114.729c.09.254-.071.368-.058.579a.82.82,0,0,1-.786,0C84.73,114.536,85.655,114.183,85.967,114.729Z" transform="translate(34.112 56.804)" fill="#fff" fill-rule="evenodd"/>
    <path id="Path_20004" data-name="Path 20004" d="M62.64,122.358c-1.149-.317-2.962,1.532-4.059.7.171-.723,1.472-.88,2.3-.99C61.427,122,62.45,121.756,62.64,122.358Z" transform="translate(16.721 61.735)" fill="#fff" fill-rule="evenodd"/>
    <path id="Path_20005" data-name="Path 20005" d="M88.94,35.707c.421.656.7-1.121,1.4-1.4a2.8,2.8,0,0,1,1,1.172c-2.334,1.987-4.542,4.045-6.8,6.077-.194-.118-.126-.824-.351-1.245C85.718,38.744,87.612,37.383,88.94,35.707Z" transform="translate(33.562 4.09)" fill="#fff" fill-rule="evenodd"/>
    <path id="Path_20006" data-name="Path 20006" d="M59.479,60.891c.186.512-.471.554-.52.932C58.819,61.682,59.163,61.067,59.479,60.891Z" transform="translate(16.948 21.574)" fill="#fff" fill-rule="evenodd"/>
    <path id="Path_20007" data-name="Path 20007" d="M104.987,61.559c-.051-.288.383-.31.4-.56-1.8,1.575-5.54,1.7-7.038,2.445-.055-.162-.061-.409-.222-.386,2.539-.739,6.345-2.4,8.522-1.969C106.461,61.2,105.5,61.37,104.987,61.559Z" transform="translate(42.724 21.645)" fill="#fff" fill-rule="evenodd"/>
    <path id="Path_20008" data-name="Path 20008" d="M52.33,81.451c-.022-.03-.229-.027-.24-.043-1.112-2.077,2.176-2.712,3.025-1.2a1.69,1.69,0,0,1-.045,1.808C54.22,82.969,53.1,82.567,52.33,81.451Zm1.9-1.21a2.508,2.508,0,0,0-1.881.085C51.3,81.981,55.332,82.394,54.227,80.241Z" transform="translate(12.303 33.73)" fill="#fff" fill-rule="evenodd"/>
    <path id="Path_20009" data-name="Path 20009" d="M134.552,132.429q1.353-.38,2.7-.766a28.71,28.71,0,0,0,1.828-2.649c.07-.094-.709-.617-.431-1.111,2.394-.792,3.217-3.322,4.292-5.029,1.021-1.613,1.915-3,2.927-4.3-1.273,3.189-3.378,5.914-5.112,8.847.283.224.318.89.484,1.321a1.827,1.827,0,0,0,.643-2.087c.474-.058.534-.345,1.008-.4,1.613-2.39,3.037-4.885,4.666-7.264-.6,2.344-2.556,4.686-3.867,6.922.726-.008,1.139,1.184.976,1.855-.438-.207-.6-.913-1.082-1.038-.893.212-.907.82-.713,1.435-1.061-.144-1.508,1.741-2.3,2.558,3.43-.1,3.791-2.458,5.132-4.035-.085-.424-.346-.522-.4-1.006a1.618,1.618,0,0,1,1.038-.3c1.4-2.074,2.473-4.325,4.041-6.306a66.281,66.281,0,0,1-3.315,6.1,1.144,1.144,0,0,1,1.139,1.247c2.1-3.11,3.5-6.607,6.06-9.455a22.58,22.58,0,0,1-2.228,3.995c-.832,1.358-1.641,2.76-2.435,4.053.225.418.438.623.426,1.112-.333.023-.645.008-.768-.341a29,29,0,0,0-1.639,2.931c1.873-.3,2.261-.759,2.926-1.951.511-.917,1.063-1.571.567-2.737.242-.363.635.017.769.34,1.376-2.113,2.4-4.424,4.278-6.257a16.141,16.141,0,0,1-1.366,2.292c-1.319,2.365-2.8,4.955-4.192,7.358,2.757-.4,3.206-2.334,4.318-4.142a27.985,27.985,0,0,1,1.916-3.121c-.015,1-.8,1.959-1.293,2.946s-1.081,1.963-1.532,2.9c1.019-.564,1.983-1.162,2.98-1.744.514-.789.023-2.138.908-2.722-.1-1.919-1.765-4.711-1.087-6.2,2.932,5.727,4.174,13.765-3.09,14,.028-.711,1.382-.915,1.943-1.449.661-.628.923-1.487,1.457-1.983-.963.993-2.869,1.169-4.05,1.931-.7.457-.623,1.367-1.174,1.792.2.134.693.148.486.535-1.624.6-3.672.975-4.593,1.976-.376.2-.3-.4-.711-.134-7.721,2.329-15.533,4.56-23.611,6.475-15.762,3.73-31.6,9.039-46.967,12.651-1.7.4-3.328.966-5.216,1.369-1.336.282-3.74.829-4.522.273,1.162-1.094,2.864-1,4.33-1.341,5.16-1.182,11.038-3.38,16.187-4.593,1.752-.413,3.745-1.061,5.808-1.646,1.913-.544,4.416-.839,5.707-1.619.776-.469,1.8-2.8,2.317-3.683a126.606,126.606,0,0,1,6.851-11.025,28.855,28.855,0,0,1-2.006,3.6c-1.992,3.566-4.28,7.275-6.334,10.877l3.943-1.119c3.418-5.109,6.2-10.571,9.82-15.565l-4.565,1.293c-1.475.419-3.32.583-4.565,1.3-.86.494-1.958,2.858-2.6,3.877-1.745,2.78-3.166,5.168-4.827,7.87-.8,1.3-1.363,2.848-2.629,3.773a4.408,4.408,0,0,1,.908-1.938,152.9,152.9,0,0,1,8.528-13.407c-.857.438-2.155.36-3.116.885-.912.5-2.065,2.6-2.79,3.594-.973,1.333-1.79,2.629-2.525,3.743-1.764,2.679-3.019,5.347-5.183,7.411A101.465,101.465,0,0,1,99.9,130.824c-1.1.537-2.476.408-3.632,1.029-.951.516-1.81,2.346-2.508,3.4-1.643,2.483-2.927,4.615-4.383,7.075-.683,1.149-1.3,2.476-2.468,3.166,2.654-4.547,5.149-9.181,8.427-13.38-1.157.587-2.564.391-3.736,1.061-.729.419-1.623,2.287-2.125,3.181-1.321,2.374-2.423,4.409-3.582,6.733-.54,1.089-.789,2.43-1.813,3.093a81.447,81.447,0,0,1,6.483-12.712c-.759.453-1.726.187-2.518.6-.637.331-1.31,1.784-1.754,2.515-1.553,2.561-3.009,5.473-4.252,7.933a3.371,3.371,0,0,1,1.838.151c.088.4.375.908.086,1.1-.607.2-.177-.5-.622-.608a5.384,5.384,0,0,0-1.126-.015c-.222.322.509.854.25,1.271-.519.094-.519-.741-.844-.993-.575.156-.628,1.789-1.512,1.775,2.193-4.366,4.441-8.7,7-12.86-5.019,1.061-11.769,3.488-16.73,4.633a6.054,6.054,0,0,0-1.381.278c-.6.315-.517.986-1.086,1.319-.144-.491.24-.685.254-1.082-3.44.85-7.414,2.634-10.357,2.6-.154.681-.166,1.126-.36,1.9-.617-.328-.814-1.208-1.077-1.825-2.69-6.251-4.507-16.878-6.919-23.6a1.106,1.106,0,0,0,.1-.816c-.449-3.554-2.578-7.58-2.941-11.159a1.328,1.328,0,0,1-.307-2.266c9.6-2.387,20.95-6.122,31.834-8.7,2.344-.557,4.877-1.058,7.383-1.646,18.275-4.3,36.386-10.494,53.812-14.6,1.16-.272,2.249-.893,3.542-.557.348.348.181.749.355,1.245a20.238,20.238,0,0,1-4.757,1.8c-6.17,2.057-13.113,3.065-19.344,4.928,1.167,3.289,2.062,7.051,3.11,10.552,4.285-.9,9.463-2.4,13.867-3.262,3.227-.635,7.046-2.165,9.992-2.723.676-.128,1.8-.451,2.162.507-1.351.275-1.8,1.1-3.9,1.669-4.313,1.17-9.81,3-15.043,4.265-9.548,2.319-19.362,6.075-28.695,7.917-4.5.888-8.915,2.41-13.367,3.454-11.94,2.811-23.626,6.74-35.052,9.609,1.492,7.095,4.258,14.9,5.526,21.864,2.092-.8,4.162-.651,5.81-1.648,1.192-.724,1.106-2.583,1.934-3.464-.068.923-.88,2.186-1.207,3.257.449-.225.968-.146,1.452-.411.965-.534,1.921-2.462,2.511-3.4.789-1.271,1.431-2.5,2.14-3.522-2.041.27-5.44,1.828-8.154,2.089-.5.046-1.245-.207-2.074-.2-.713.008-1.6.524-1.687-.419-.091-.971,1.19-.738,1.928-1.109.341-.073.041-.5.4-.56,4.534-1.247,11.33-4.166,15.727-4.238.585-.01,1.664-.287,1.611.554-.54-.317-1.366.114-1.866.529.892.123,2.069-.267,2.38.893-.282.451-1.24.53-1.91.766a49.266,49.266,0,0,0-4.205,6.909l1.764-.5c.8-1.21,1.6-2.52,2.394-3.816.771-1.266,1.368-2.767,2.583-3.539-1.389,2.4-2.911,4.723-4.252,7.149,15.417-3.809,31.471-9.588,47.343-13.321,7.743-1.818,15.842-4.966,23.521-6.783,1.59-.378,3.438-1.416,5.127-1.679.641-.1,1.653.083,1.79.388.525,1.121-1.6,1.293-2.355,1.566a120.863,120.863,0,0,1-14.509,4.563c-6.412,1.51-11.363,3.113-17.254,4.782a26.664,26.664,0,0,0-4.461,1.266c-1.033.582-1.8,2.728-2.5,3.847-2.544,4.084-4.732,7.532-7.222,11.689,7.592-1.865,16.238-4.534,24.292-6.445,2.261-.532,4.02-.525,4.33-2.122-4.522,1.056-8.038,2.22-12.24,2.687,1.628-1.1,4.283-.844,5.989-1.813.646-.365,1.145-1.673,1.648-2.483,1.575-2.553,3.383-5.069,4.974-7.353a23.641,23.641,0,0,1-2.778,4.822c-1.034,1.6-2.158,3.168-3.015,4.781q1.348-.383,2.7-.766c2.559-3.521,4.524-7.371,7.118-10.876-1.83,3.725-4.358,7.061-6.388,10.67.746-.409,1.79-.249,2.594-.736.54-.328,1.122-1.669,1.571-2.35,1.588-2.4,3.287-4.769,4.858-6.983.376-.161-.25.6-.414.9C138.254,126.893,136.019,129.763,134.552,132.429ZM48.3,105.781c1.162,2.689,2.06,7.8,3.386,11.146,6.438-1.722,13.083-3.287,19.3-5.473-1.157-3.461-2.145-7.214-3.2-10.864C61.132,102.506,54.7,103.411,48.3,105.781Zm59.269-15.918c-9.984,3.514-20.679,5.722-30.709,7.927-.186.07.04.37-.091.477a56.532,56.532,0,0,0-6.592,1.646c.678,3.551,2.127,7.53,2.675,11.01,15.843-4.345,31.775-8.847,47.456-12.9a93.612,93.612,0,0,1-3.474-10.67C113.757,88.176,110.6,88.8,107.566,89.863ZM70.693,131.376a39.838,39.838,0,0,1-3.327,5.652c-.262.373-.767.749-.567,1.17,3.257-.282,3.658-2.3,4.792-4.051.4-.612.845-1.134,1.2-1.686s.542-1.417,1.232-1.585c-.93,1.54-1.973,3.5-2.959,4.988-.325.5-1.064.961-.814,1.465.517-.146,1.038-.293,1.553-.441,1.046-1.651,2.11-3.771,3.181-5.386.365-.549,1.213-1.217.892-1.6Zm68.638-2.657c0-.348.391-.477.446-.8l-.622.177C139.353,128.336,139.127,128.766,139.331,128.719Zm7.187-2.71c-.413.424.522,1.058-.06,1.363-.167-.121-.222-.438-.532-.3-.381,1.01-1.321,1.709-1.694,2.722a18.236,18.236,0,0,1,2.669-.87c.459-.587.681-1.306,1.142-1.895C147.659,126.468,147.453,125.588,146.518,126.009Zm-8.439,5.419c2.1-.355,3.41-1.628,2.2-3.312C139.6,129.248,138.822,130.327,138.079,131.428Zm-4.968,3.43c1.644-.254,3.677-1.2,3.232-2.039C134.781,133.225,133.055,133.546,133.112,134.857Zm9.1-3.481c-2.107.7-5.865.748-5.649,2.612,3.965-1.159,7.845-2.167,11.676-3.09a2.8,2.8,0,0,0,.64-1.3,5.723,5.723,0,0,0-2.889,1.268c-.187-.23.373-.542-.119-.414-1.134.386-2.677.547-3.231,1.252C142.454,131.675,142.522,131.191,142.215,131.376Zm6.755-.683c.905-.267,1.631-.211,2.549-.5.038-.559.4-.937.477-1.479C150.871,129.008,149.1,129.4,148.97,130.693Z" transform="translate(8.32 33.309)" fill="#fff" fill-rule="evenodd"/>
    <path id="Path_20010" data-name="Path 20010" d="M65.9,111.744a1.337,1.337,0,0,1-.459,1.14C65.22,112.294,65.921,112.216,65.9,111.744Z" transform="translate(21.206 55.015)" fill="#fff" fill-rule="evenodd"/>
    <path id="Path_20011" data-name="Path 20011" d="M68.694,114.39a31.961,31.961,0,0,1-4.28,7.043c-.4.491-1.651,1.717-1.631,2.147,0,.093,1.271,1.484.767,1.911-.64.156-.749-.645-.933-1.306-.535.05-.27.547-.711.65a3,3,0,0,1,.164-.607c-.252.036-.436-.053-.756.1-.1.275.859,1.278.235,1.613a2.145,2.145,0,0,1-1.034-2.06c2,.235,2.515-1.353,3.426-2.543C65.633,119.147,67.227,116.493,68.694,114.39Z" transform="translate(17.979 56.755)" fill="#fff" fill-rule="evenodd"/>
    <path id="Path_20012" data-name="Path 20012" d="M69.229,89.42c-1.429-.24-.865-2.215-.648-3.067A58.545,58.545,0,0,1,86.7,81.882c1.086-.063,3.4-.484,3.6.439.191.85-.947.865-2.208,1.3-3.169,1.084-5.9,2.011-10.08,3.2C74.894,87.7,71.291,88.379,69.229,89.42Z" transform="translate(23.103 35.279)" fill="#fff" fill-rule="evenodd"/>
  </g>
</svg>
