<svg xmlns="http://www.w3.org/2000/svg" width="35.685" height="31.033" viewBox="0 0 35.685 31.033"><g transform="translate(-306.794 -105.363)"><g transform="translate(306.794 105.363)"><path d="M318.687,108.037a3.75,3.75,0,0,1-2.4-2.4.443.443,0,0,0-.818,0,3.751,3.751,0,0,1-2.4,2.4.443.443,0,0,0,0,.818,3.751,3.751,0,0,1,2.4,2.4.443.443,0,0,0,.818,0,3.75,3.75,0,0,1,2.4-2.4A.443.443,0,0,0,318.687,108.037Z" transform="translate(-307.361 -105.363)" fill="#1e87f0"/><path d="M334.19,109.711a3.2,3.2,0,0,1,2.049,2.049.378.378,0,0,0,.7,0,3.2,3.2,0,0,1,2.049-2.049.378.378,0,0,0,0-.7,3.2,3.2,0,0,1-2.049-2.049.378.378,0,0,0-.7,0,3.2,3.2,0,0,1-2.049,2.049A.378.378,0,0,0,334.19,109.711Zm-22.368,18.317a3.2,3.2,0,0,1-2.049-2.049.378.378,0,0,0-.7,0,3.2,3.2,0,0,1-2.049,2.049.378.378,0,0,0,0,.7,3.2,3.2,0,0,1,2.049,2.049.378.378,0,0,0,.7,0,3.2,3.2,0,0,1,2.049-2.049A.378.378,0,0,0,311.821,128.028Zm29.19-11.711-8.232-1.592a1.814,1.814,0,0,1-1.221-.866l-4.36-7.475a1.811,1.811,0,0,0-3.128,0l-4.361,7.475a1.81,1.81,0,0,1-1.22.866l-7.9,1.528a1.811,1.811,0,0,0-1.03,2.958l5.61,6.536a1.811,1.811,0,0,1,.427,1.367l-.742,7.088a1.811,1.811,0,0,0,2.828,1.681,1.643,1.643,0,0,0,.712-1.354v-1.46a5.826,5.826,0,0,1,5.826-5.826h2.837a5.825,5.825,0,0,1,5.825,5.826v1.46a1.641,1.641,0,0,0,.713,1.354l.292.2a1.811,1.811,0,0,0,2.836-1.547l-.2-6.7a1.811,1.811,0,0,1,.324-1.089l5.31-7.624A1.811,1.811,0,0,0,341.011,116.317Zm-15.377,8.212A4.527,4.527,0,1,1,330.162,120,4.527,4.527,0,0,1,325.635,124.529Z" transform="translate(-306.794 -105.375)" fill="#1e87f0"/></g></g></svg>