<svg xmlns="http://www.w3.org/2000/svg" width="37.298" height="37.298" viewBox="0 0 37.298 37.298"><g transform="translate(0.1 0.1)"><circle cx="18.5" cy="18.5" r="18.5" fill="#fff"/><path d="M39.72,34.316v12.91a.9.9,0,0,0,1.345.767l10.578-6.457a.9.9,0,0,0,0-1.529L41.083,33.549a.9.9,0,0,0-1.363.767Z" transform="translate(-25.322 -21.828)" fill="#191919"/><path d="M26.089,44.6A18.549,18.549,0,1,1,44.638,26.051,18.549,18.549,0,0,1,26.089,44.6Zm0-36.217A17.672,17.672,0,1,0,43.762,26.054,17.672,17.672,0,0,0,26.089,8.381Z" transform="translate(-7.54 -7.5)" fill="#fff" stroke="#fff" stroke-width="0.2"/></g></svg>