<svg xmlns="http://www.w3.org/2000/svg" width="39.728" height="33.883" viewBox="0 0 39.728 33.883"><g transform="translate(-305.191 -172.326)"><g transform="translate(305.191 172.326)"><path d="M332.629,194.142a5.528,5.528,0,0,1,.139-3.035,5.687,5.687,0,0,1,2.941-3.294,5.364,5.364,0,0,1,3.343-.484.459.459,0,0,0,.525-.461V174.19a1.864,1.864,0,0,0-1.864-1.864H312.543a1.864,1.864,0,0,0-1.864,1.864v12.655a.46.46,0,0,0,.525.46,5.408,5.408,0,0,1,3.941.96,5.494,5.494,0,0,1,2.336,5.875.46.46,0,0,0,.454.558h1.212a.466.466,0,0,0,.448-.365,5.619,5.619,0,0,1,10.92,0,.466.466,0,0,0,.448.365h1.212A.459.459,0,0,0,332.629,194.142ZM329.6,183.755l-5.635,3.451a1.378,1.378,0,0,1-2.1-1.175v-6.9a1.378,1.378,0,0,1,2.1-1.174l5.635,3.451A1.377,1.377,0,0,1,329.6,183.755ZM312,196.632a3.761,3.761,0,1,0-3.761-3.761A3.762,3.762,0,0,0,312,196.632Zm22.34-3.761a3.761,3.761,0,1,0,3.761-3.761A3.761,3.761,0,0,0,334.344,192.87Zm7.508,5.658h-7.493a3.055,3.055,0,0,0-2.569,1.4.481.481,0,0,0,.1.64,4.925,4.925,0,0,1,1.652,2.488.468.468,0,0,0,.447.352h9.993a.933.933,0,0,0,.932-.932V201.6A3.067,3.067,0,0,0,341.852,198.529Zm-26.1,0h-7.493a3.067,3.067,0,0,0-3.067,3.067v.885a.933.933,0,0,0,.932.932h9.993a.468.468,0,0,0,.447-.352,4.925,4.925,0,0,1,1.652-2.488.48.48,0,0,0,.1-.64A3.056,3.056,0,0,0,315.751,198.529Z" transform="translate(-305.191 -172.326)" fill="#1e87f0"/><path d="M326,200.853a3.761,3.761,0,1,0-3.761-3.761A3.762,3.762,0,0,0,326,200.853Zm3.746,1.9h-7.493a3.067,3.067,0,0,0-3.067,3.067v.885a.933.933,0,0,0,.932.932h11.762a.933.933,0,0,0,.932-.932v-.885A3.067,3.067,0,0,0,329.751,202.75Z" transform="translate(-306.141 -173.751)" fill="#1e87f0"/></g></g></svg>