<svg xmlns="http://www.w3.org/2000/svg" width="28.074" height="29.498" viewBox="0 0 28.074 29.498"><g transform="translate(875.91 -7018)"><path d="M38.988,27.947l.926-.433a7.585,7.585,0,0,0,4.148-6.535v-10.9A1.061,1.061,0,0,0,42.95,9.1H28.211a1.038,1.038,0,0,0-1.111.975v10.9a7.659,7.659,0,0,0,4.148,6.535l.926.433A2.042,2.042,0,0,1,33.4,29.716v3.5H31.47a.656.656,0,0,0-.667.65v1.95H28.841A1.1,1.1,0,0,0,27.73,36.9V38.31a.289.289,0,0,0,.3.289H43.061a.288.288,0,0,0,.3-.289V36.9a1.1,1.1,0,0,0-1.111-1.083H40.284v-1.95a.656.656,0,0,0-.667-.65H37.691v-3.5A2.273,2.273,0,0,1,38.988,27.947ZM37.617,22.1,35.58,21.051,33.544,22.1a.513.513,0,0,1-.555-.036.48.48,0,0,1-.222-.505l.37-2.2L31.507,17.8a.594.594,0,0,1-.148-.542A.57.57,0,0,1,31.8,16.9l2.259-.325,1-1.986a.546.546,0,0,1,.963,0l1,1.986,2.259.325a.57.57,0,0,1,.444.361.511.511,0,0,1-.148.542l-1.629,1.553.37,2.2a.458.458,0,0,1-.222.505.608.608,0,0,1-.333.108Z" transform="translate(-897.451 7008.9)" fill="#1e87f0"/><path d="M16.464,16.3H12.575a.47.47,0,0,0-.481.505c.074,1.733.667,7.4,4.222,9.929a.235.235,0,0,0,.37-.181V24.568a.186.186,0,0,0-.074-.144,7.948,7.948,0,0,1-1.741-2.961,15.227,15.227,0,0,1-.7-2.78.308.308,0,0,1,.3-.361h2a.236.236,0,0,0,.222-.217V16.553A.244.244,0,0,0,16.464,16.3Z" transform="translate(-888 7004.3)" fill="#1e87f0"/><path d="M75.574,24.424a.271.271,0,0,0-.074.144v1.986a.235.235,0,0,0,.37.181c3.555-2.527,4.148-8.232,4.222-9.929a.492.492,0,0,0-.481-.505H75.722a.236.236,0,0,0-.222.217v1.589a.236.236,0,0,0,.222.217h2a.308.308,0,0,1,.3.361,19.012,19.012,0,0,1-.7,2.78A8.474,8.474,0,0,1,75.574,24.424Z" transform="translate(-927.927 7004.3)" fill="#1e87f0"/></g></svg>